<?xml version="1.0" encoding="utf-8" standalone="no"?>
<!DOCTYPE svg PUBLIC "-//W3C//DTD SVG 1.1//EN"
  "http://www.w3.org/Graphics/SVG/1.1/DTD/svg11.dtd">
<svg xmlns:xlink="http://www.w3.org/1999/xlink" width="460.8pt" height="345.6pt" viewBox="0 0 460.8 345.6" xmlns="http://www.w3.org/2000/svg" version="1.1">
 <metadata>
  <rdf:RDF xmlns:dc="http://purl.org/dc/elements/1.1/" xmlns:cc="http://creativecommons.org/ns#" xmlns:rdf="http://www.w3.org/1999/02/22-rdf-syntax-ns#">
   <cc:Work>
    <dc:type rdf:resource="http://purl.org/dc/dcmitype/StillImage"/>
    <dc:date>2025-01-25T14:50:37.416144</dc:date>
    <dc:format>image/svg+xml</dc:format>
    <dc:creator>
     <cc:Agent>
      <dc:title>Matplotlib v3.9.3, https://matplotlib.org/</dc:title>
     </cc:Agent>
    </dc:creator>
   </cc:Work>
  </rdf:RDF>
 </metadata>
 <defs>
  <style type="text/css">*{stroke-linejoin: round; stroke-linecap: butt}</style>
 </defs>
 <g id="figure_1">
  <g id="patch_1">
   <path d="M 0 345.6 
L 460.8 345.6 
L 460.8 0 
L 0 0 
z
" style="fill: #ffffff"/>
  </g>
  <g id="axes_1">
   <g id="patch_2">
    <path d="M 57.6 307.584 
L 414.72 307.584 
L 414.72 41.472 
L 57.6 41.472 
z
" style="fill: #ffffff"/>
   </g>
   <g id="PathCollection_1">
    <defs>
     <path id="mfb0e3fbfcc" d="M 0 3 
C 0.795609 3 1.55874 2.683901 2.12132 2.12132 
C 2.683901 1.55874 3 0.795609 3 0 
C 3 -0.795609 2.683901 -1.55874 2.12132 -2.12132 
C 1.55874 -2.683901 0.795609 -3 0 -3 
C -0.795609 -3 -1.55874 -2.683901 -2.12132 -2.12132 
C -2.683901 -1.55874 -3 -0.795609 -3 0 
C -3 0.795609 -2.683901 1.55874 -2.12132 2.12132 
C -1.55874 2.683901 -0.795609 3 0 3 
z
" style="stroke: #0000ff; stroke-opacity: 0.8"/>
    </defs>
    <g clip-path="url(#pbdb9dc22b6)">
     <use xlink:href="#mfb0e3fbfcc" x="73.832727" y="295.488" style="fill: #0000ff; fill-opacity: 0.8; stroke: #0000ff; stroke-opacity: 0.8"/>
     <use xlink:href="#mfb0e3fbfcc" x="80.596364" y="182.726719" style="fill: #0000ff; fill-opacity: 0.8; stroke: #0000ff; stroke-opacity: 0.8"/>
     <use xlink:href="#mfb0e3fbfcc" x="87.36" y="95.345081" style="fill: #0000ff; fill-opacity: 0.8; stroke: #0000ff; stroke-opacity: 0.8"/>
     <use xlink:href="#mfb0e3fbfcc" x="94.123636" y="53.568" style="fill: #0000ff; fill-opacity: 0.8; stroke: #0000ff; stroke-opacity: 0.8"/>
     <use xlink:href="#mfb0e3fbfcc" x="100.887273" y="74.149819" style="fill: #0000ff; fill-opacity: 0.8; stroke: #0000ff; stroke-opacity: 0.8"/>
     <use xlink:href="#mfb0e3fbfcc" x="107.650909" y="80.235125" style="fill: #0000ff; fill-opacity: 0.8; stroke: #0000ff; stroke-opacity: 0.8"/>
     <use xlink:href="#mfb0e3fbfcc" x="114.414545" y="105.133999" style="fill: #0000ff; fill-opacity: 0.8; stroke: #0000ff; stroke-opacity: 0.8"/>
     <use xlink:href="#mfb0e3fbfcc" x="121.178182" y="115.98296" style="fill: #0000ff; fill-opacity: 0.8; stroke: #0000ff; stroke-opacity: 0.8"/>
     <use xlink:href="#mfb0e3fbfcc" x="127.941818" y="119.165759" style="fill: #0000ff; fill-opacity: 0.8; stroke: #0000ff; stroke-opacity: 0.8"/>
     <use xlink:href="#mfb0e3fbfcc" x="134.705455" y="137.835176" style="fill: #0000ff; fill-opacity: 0.8; stroke: #0000ff; stroke-opacity: 0.8"/>
     <use xlink:href="#mfb0e3fbfcc" x="141.469091" y="163.12299" style="fill: #0000ff; fill-opacity: 0.8; stroke: #0000ff; stroke-opacity: 0.8"/>
     <use xlink:href="#mfb0e3fbfcc" x="148.232727" y="170.137269" style="fill: #0000ff; fill-opacity: 0.8; stroke: #0000ff; stroke-opacity: 0.8"/>
     <use xlink:href="#mfb0e3fbfcc" x="154.996364" y="188.902519" style="fill: #0000ff; fill-opacity: 0.8; stroke: #0000ff; stroke-opacity: 0.8"/>
     <use xlink:href="#mfb0e3fbfcc" x="161.76" y="168.855126" style="fill: #0000ff; fill-opacity: 0.8; stroke: #0000ff; stroke-opacity: 0.8"/>
     <use xlink:href="#mfb0e3fbfcc" x="168.523636" y="189.984452" style="fill: #0000ff; fill-opacity: 0.8; stroke: #0000ff; stroke-opacity: 0.8"/>
     <use xlink:href="#mfb0e3fbfcc" x="175.287273" y="206.65204" style="fill: #0000ff; fill-opacity: 0.8; stroke: #0000ff; stroke-opacity: 0.8"/>
     <use xlink:href="#mfb0e3fbfcc" x="182.050909" y="169.20616" style="fill: #0000ff; fill-opacity: 0.8; stroke: #0000ff; stroke-opacity: 0.8"/>
     <use xlink:href="#mfb0e3fbfcc" x="188.814545" y="198.278738" style="fill: #0000ff; fill-opacity: 0.8; stroke: #0000ff; stroke-opacity: 0.8"/>
     <use xlink:href="#mfb0e3fbfcc" x="195.578182" y="177.31652" style="fill: #0000ff; fill-opacity: 0.8; stroke: #0000ff; stroke-opacity: 0.8"/>
     <use xlink:href="#mfb0e3fbfcc" x="202.341818" y="200.578479" style="fill: #0000ff; fill-opacity: 0.8; stroke: #0000ff; stroke-opacity: 0.8"/>
     <use xlink:href="#mfb0e3fbfcc" x="209.105455" y="177.092819" style="fill: #0000ff; fill-opacity: 0.8; stroke: #0000ff; stroke-opacity: 0.8"/>
     <use xlink:href="#mfb0e3fbfcc" x="215.869091" y="171.562495" style="fill: #0000ff; fill-opacity: 0.8; stroke: #0000ff; stroke-opacity: 0.8"/>
     <use xlink:href="#mfb0e3fbfcc" x="222.632727" y="190.599496" style="fill: #0000ff; fill-opacity: 0.8; stroke: #0000ff; stroke-opacity: 0.8"/>
     <use xlink:href="#mfb0e3fbfcc" x="229.396364" y="188.542676" style="fill: #0000ff; fill-opacity: 0.8; stroke: #0000ff; stroke-opacity: 0.8"/>
     <use xlink:href="#mfb0e3fbfcc" x="236.16" y="203.858181" style="fill: #0000ff; fill-opacity: 0.8; stroke: #0000ff; stroke-opacity: 0.8"/>
     <use xlink:href="#mfb0e3fbfcc" x="242.923636" y="193.387216" style="fill: #0000ff; fill-opacity: 0.8; stroke: #0000ff; stroke-opacity: 0.8"/>
     <use xlink:href="#mfb0e3fbfcc" x="249.687273" y="244.724442" style="fill: #0000ff; fill-opacity: 0.8; stroke: #0000ff; stroke-opacity: 0.8"/>
     <use xlink:href="#mfb0e3fbfcc" x="256.450909" y="194.48036" style="fill: #0000ff; fill-opacity: 0.8; stroke: #0000ff; stroke-opacity: 0.8"/>
     <use xlink:href="#mfb0e3fbfcc" x="263.214545" y="214.377196" style="fill: #0000ff; fill-opacity: 0.8; stroke: #0000ff; stroke-opacity: 0.8"/>
     <use xlink:href="#mfb0e3fbfcc" x="269.978182" y="211.08308" style="fill: #0000ff; fill-opacity: 0.8; stroke: #0000ff; stroke-opacity: 0.8"/>
     <use xlink:href="#mfb0e3fbfcc" x="276.741818" y="234.280972" style="fill: #0000ff; fill-opacity: 0.8; stroke: #0000ff; stroke-opacity: 0.8"/>
     <use xlink:href="#mfb0e3fbfcc" x="283.505455" y="188.229014" style="fill: #0000ff; fill-opacity: 0.8; stroke: #0000ff; stroke-opacity: 0.8"/>
     <use xlink:href="#mfb0e3fbfcc" x="290.269091" y="229.966054" style="fill: #0000ff; fill-opacity: 0.8; stroke: #0000ff; stroke-opacity: 0.8"/>
     <use xlink:href="#mfb0e3fbfcc" x="297.032727" y="206.34345" style="fill: #0000ff; fill-opacity: 0.8; stroke: #0000ff; stroke-opacity: 0.8"/>
     <use xlink:href="#mfb0e3fbfcc" x="303.796364" y="194.642931" style="fill: #0000ff; fill-opacity: 0.8; stroke: #0000ff; stroke-opacity: 0.8"/>
     <use xlink:href="#mfb0e3fbfcc" x="310.56" y="222.315909" style="fill: #0000ff; fill-opacity: 0.8; stroke: #0000ff; stroke-opacity: 0.8"/>
     <use xlink:href="#mfb0e3fbfcc" x="317.323636" y="233.90698" style="fill: #0000ff; fill-opacity: 0.8; stroke: #0000ff; stroke-opacity: 0.8"/>
     <use xlink:href="#mfb0e3fbfcc" x="324.087273" y="209.808145" style="fill: #0000ff; fill-opacity: 0.8; stroke: #0000ff; stroke-opacity: 0.8"/>
     <use xlink:href="#mfb0e3fbfcc" x="330.850909" y="200.942861" style="fill: #0000ff; fill-opacity: 0.8; stroke: #0000ff; stroke-opacity: 0.8"/>
     <use xlink:href="#mfb0e3fbfcc" x="337.614545" y="243.853663" style="fill: #0000ff; fill-opacity: 0.8; stroke: #0000ff; stroke-opacity: 0.8"/>
     <use xlink:href="#mfb0e3fbfcc" x="344.378182" y="202.782921" style="fill: #0000ff; fill-opacity: 0.8; stroke: #0000ff; stroke-opacity: 0.8"/>
     <use xlink:href="#mfb0e3fbfcc" x="351.141818" y="227.024306" style="fill: #0000ff; fill-opacity: 0.8; stroke: #0000ff; stroke-opacity: 0.8"/>
     <use xlink:href="#mfb0e3fbfcc" x="357.905455" y="196.455228" style="fill: #0000ff; fill-opacity: 0.8; stroke: #0000ff; stroke-opacity: 0.8"/>
     <use xlink:href="#mfb0e3fbfcc" x="364.669091" y="233.106142" style="fill: #0000ff; fill-opacity: 0.8; stroke: #0000ff; stroke-opacity: 0.8"/>
     <use xlink:href="#mfb0e3fbfcc" x="371.432727" y="224.324679" style="fill: #0000ff; fill-opacity: 0.8; stroke: #0000ff; stroke-opacity: 0.8"/>
     <use xlink:href="#mfb0e3fbfcc" x="378.196364" y="209.776111" style="fill: #0000ff; fill-opacity: 0.8; stroke: #0000ff; stroke-opacity: 0.8"/>
     <use xlink:href="#mfb0e3fbfcc" x="384.96" y="200.693533" style="fill: #0000ff; fill-opacity: 0.8; stroke: #0000ff; stroke-opacity: 0.8"/>
     <use xlink:href="#mfb0e3fbfcc" x="391.723636" y="242.924156" style="fill: #0000ff; fill-opacity: 0.8; stroke: #0000ff; stroke-opacity: 0.8"/>
     <use xlink:href="#mfb0e3fbfcc" x="398.487273" y="228.841142" style="fill: #0000ff; fill-opacity: 0.8; stroke: #0000ff; stroke-opacity: 0.8"/>
    </g>
   </g>
   <g id="PolyCollection_1">
    <path d="M 73.832727 105.199382 
L 73.832727 173.957084 
L 77.112066 174.409134 
L 80.391405 174.861026 
L 83.670744 175.312919 
L 86.950083 175.764811 
L 90.229421 176.216703 
L 93.50876 176.668596 
L 96.788099 177.120488 
L 100.067438 177.608262 
L 103.346777 178.098359 
L 106.626116 178.53115 
L 109.905455 178.963941 
L 113.184793 179.396732 
L 116.464132 179.841273 
L 119.743471 180.373989 
L 123.02281 181.001463 
L 126.302149 181.627422 
L 129.581488 182.078813 
L 132.860826 182.513978 
L 136.140165 182.948848 
L 139.419504 183.383719 
L 142.698843 183.870083 
L 145.978182 184.468618 
L 149.257521 185.082242 
L 152.53686 185.695867 
L 155.816198 186.309492 
L 159.095537 186.845118 
L 162.374876 187.399357 
L 165.654215 187.969402 
L 168.933554 188.489308 
L 172.212893 189.009214 
L 175.492231 189.528297 
L 178.77157 190.045488 
L 182.050909 190.56268 
L 185.330248 191.079872 
L 188.609587 191.593607 
L 191.888926 191.894131 
L 195.168264 192.1942 
L 198.447603 192.72304 
L 201.726942 193.403189 
L 205.006281 194.059861 
L 208.28562 194.541542 
L 211.564959 195.163841 
L 214.844298 195.741204 
L 218.123636 196.262601 
L 221.402975 196.783276 
L 224.682314 197.313421 
L 227.961653 197.888383 
L 231.240992 198.363928 
L 234.520331 198.9841 
L 237.799669 199.547916 
L 241.079008 200.373773 
L 244.358347 201.116983 
L 247.637686 201.723469 
L 250.917025 202.510862 
L 254.196364 203.239897 
L 257.475702 203.948393 
L 260.755041 204.697526 
L 264.03438 205.330233 
L 267.313719 206.02568 
L 270.593058 206.714962 
L 273.872397 207.461056 
L 277.151736 208.584399 
L 280.431074 209.720907 
L 283.710413 210.556944 
L 286.989752 211.976696 
L 290.269091 212.967378 
L 293.54843 213.989587 
L 296.827769 215.183902 
L 300.107107 216.386482 
L 303.386446 217.728923 
L 306.665785 219.22818 
L 309.945124 220.554758 
L 313.224463 221.983056 
L 316.503802 223.412391 
L 319.78314 224.841726 
L 323.062479 226.261376 
L 326.341818 227.496702 
L 329.621157 228.98645 
L 332.900496 230.312362 
L 336.179835 231.586166 
L 339.459174 232.886427 
L 342.738512 234.363568 
L 346.017851 235.778232 
L 349.29719 237.236911 
L 352.576529 238.705426 
L 355.855868 240.173941 
L 359.135207 241.642457 
L 362.414545 243.110972 
L 365.693884 244.579487 
L 368.973223 246.118275 
L 372.252562 247.525982 
L 375.531901 248.982668 
L 378.81124 250.451557 
L 382.090579 251.918848 
L 385.369917 253.368601 
L 388.649256 254.796331 
L 391.928595 256.224061 
L 395.207934 257.651791 
L 398.487273 259.079521 
L 398.487273 221.510077 
L 398.487273 221.510077 
L 395.207934 220.965181 
L 391.928595 220.435345 
L 388.649256 219.894444 
L 385.369917 219.363734 
L 382.090579 218.833024 
L 378.81124 218.305059 
L 375.531901 217.781266 
L 372.252562 217.257474 
L 368.973223 216.871573 
L 365.693884 216.449472 
L 362.414545 215.930801 
L 359.135207 215.412131 
L 355.855868 214.716998 
L 352.576529 214.060435 
L 349.29719 213.560193 
L 346.017851 212.903355 
L 342.738512 212.126446 
L 339.459174 211.354323 
L 336.179835 210.704053 
L 332.900496 210.109022 
L 329.621157 209.389568 
L 326.341818 208.718566 
L 323.062479 207.873149 
L 319.78314 207.138572 
L 316.503802 206.290919 
L 313.224463 205.459749 
L 309.945124 204.601394 
L 306.665785 203.718462 
L 303.386446 202.812324 
L 300.107107 201.75789 
L 296.827769 200.794713 
L 293.54843 199.769951 
L 290.269091 198.792417 
L 286.989752 197.366803 
L 283.710413 196.132456 
L 280.431074 195.022416 
L 277.151736 193.848232 
L 273.872397 192.64498 
L 270.593058 191.553285 
L 267.313719 190.355344 
L 264.03438 189.076278 
L 260.755041 187.659306 
L 257.475702 186.414412 
L 254.196364 185.17509 
L 250.917025 183.935768 
L 247.637686 182.564036 
L 244.358347 181.051938 
L 241.079008 179.832156 
L 237.799669 178.612373 
L 234.520331 177.064041 
L 231.240992 175.643233 
L 227.961653 174.449497 
L 224.682314 173.151695 
L 221.402975 171.855687 
L 218.123636 170.558228 
L 214.844298 169.167182 
L 211.564959 167.715406 
L 208.28562 166.163918 
L 205.006281 164.743339 
L 201.726942 163.36078 
L 198.447603 161.964801 
L 195.168264 160.573378 
L 191.888926 159.109315 
L 188.609587 157.641909 
L 185.330248 156.174541 
L 182.050909 154.750276 
L 178.77157 153.3393 
L 175.492231 151.790379 
L 172.212893 150.408555 
L 168.933554 148.95118 
L 165.654215 147.488853 
L 162.374876 146.026598 
L 159.095537 144.505033 
L 155.816198 143.023059 
L 152.53686 141.600017 
L 149.257521 140.177764 
L 145.978182 138.715324 
L 142.698843 137.253069 
L 139.419504 135.790814 
L 136.140165 134.305397 
L 132.860826 132.852209 
L 129.581488 131.399231 
L 126.302149 129.936944 
L 123.02281 128.452543 
L 119.743471 126.819721 
L 116.464132 125.202948 
L 113.184793 123.833739 
L 109.905455 122.41427 
L 106.626116 120.948949 
L 103.346777 119.481281 
L 100.067438 117.984745 
L 96.788099 116.379355 
L 93.50876 114.792145 
L 90.229421 113.247717 
L 86.950083 111.58911 
L 83.670744 110.020903 
L 80.391405 108.374978 
L 77.112066 106.738269 
L 73.832727 105.199382 
z
" clip-path="url(#pbdb9dc22b6)" style="fill: #0000ff; fill-opacity: 0.15"/>
   </g>
   <g id="matplotlib.axis_1">
    <g id="xtick_1">
     <g id="line2d_1">
      <path d="M 60.305455 307.584 
L 60.305455 41.472 
" clip-path="url(#pbdb9dc22b6)" style="fill: none; stroke: #b0b0b0; stroke-width: 0.8; stroke-linecap: square"/>
     </g>
     <g id="line2d_2">
      <defs>
       <path id="mc7be7d826f" d="M 0 0 
L 0 3.5 
" style="stroke: #000000; stroke-width: 0.8"/>
      </defs>
      <g>
       <use xlink:href="#mc7be7d826f" x="60.305455" y="307.584" style="stroke: #000000; stroke-width: 0.8"/>
      </g>
     </g>
     <g id="text_1">
      <!-- 0 -->
      <g transform="translate(55.215455 326.7415) scale(0.16 -0.16)">
       <defs>
        <path id="DejaVuSans-30" d="M 2034 4250 
Q 1547 4250 1301 3770 
Q 1056 3291 1056 2328 
Q 1056 1369 1301 889 
Q 1547 409 2034 409 
Q 2525 409 2770 889 
Q 3016 1369 3016 2328 
Q 3016 3291 2770 3770 
Q 2525 4250 2034 4250 
z
M 2034 4750 
Q 2819 4750 3233 4129 
Q 3647 3509 3647 2328 
Q 3647 1150 3233 529 
Q 2819 -91 2034 -91 
Q 1250 -91 836 529 
Q 422 1150 422 2328 
Q 422 3509 836 4129 
Q 1250 4750 2034 4750 
z
" transform="scale(0.015625)"/>
       </defs>
       <use xlink:href="#DejaVuSans-30"/>
      </g>
     </g>
    </g>
    <g id="xtick_2">
     <g id="line2d_3">
      <path d="M 127.941818 307.584 
L 127.941818 41.472 
" clip-path="url(#pbdb9dc22b6)" style="fill: none; stroke: #b0b0b0; stroke-width: 0.8; stroke-linecap: square"/>
     </g>
     <g id="line2d_4">
      <g>
       <use xlink:href="#mc7be7d826f" x="127.941818" y="307.584" style="stroke: #000000; stroke-width: 0.8"/>
      </g>
     </g>
     <g id="text_2">
      <!-- 10 -->
      <g transform="translate(117.761818 326.7415) scale(0.16 -0.16)">
       <defs>
        <path id="DejaVuSans-31" d="M 794 531 
L 1825 531 
L 1825 4091 
L 703 3866 
L 703 4441 
L 1819 4666 
L 2450 4666 
L 2450 531 
L 3481 531 
L 3481 0 
L 794 0 
L 794 531 
z
" transform="scale(0.015625)"/>
       </defs>
       <use xlink:href="#DejaVuSans-31"/>
       <use xlink:href="#DejaVuSans-30" x="63.623047"/>
      </g>
     </g>
    </g>
    <g id="xtick_3">
     <g id="line2d_5">
      <path d="M 195.578182 307.584 
L 195.578182 41.472 
" clip-path="url(#pbdb9dc22b6)" style="fill: none; stroke: #b0b0b0; stroke-width: 0.8; stroke-linecap: square"/>
     </g>
     <g id="line2d_6">
      <g>
       <use xlink:href="#mc7be7d826f" x="195.578182" y="307.584" style="stroke: #000000; stroke-width: 0.8"/>
      </g>
     </g>
     <g id="text_3">
      <!-- 20 -->
      <g transform="translate(185.398182 326.7415) scale(0.16 -0.16)">
       <defs>
        <path id="DejaVuSans-32" d="M 1228 531 
L 3431 531 
L 3431 0 
L 469 0 
L 469 531 
Q 828 903 1448 1529 
Q 2069 2156 2228 2338 
Q 2531 2678 2651 2914 
Q 2772 3150 2772 3378 
Q 2772 3750 2511 3984 
Q 2250 4219 1831 4219 
Q 1534 4219 1204 4116 
Q 875 4013 500 3803 
L 500 4441 
Q 881 4594 1212 4672 
Q 1544 4750 1819 4750 
Q 2544 4750 2975 4387 
Q 3406 4025 3406 3419 
Q 3406 3131 3298 2873 
Q 3191 2616 2906 2266 
Q 2828 2175 2409 1742 
Q 1991 1309 1228 531 
z
" transform="scale(0.015625)"/>
       </defs>
       <use xlink:href="#DejaVuSans-32"/>
       <use xlink:href="#DejaVuSans-30" x="63.623047"/>
      </g>
     </g>
    </g>
    <g id="xtick_4">
     <g id="line2d_7">
      <path d="M 263.214545 307.584 
L 263.214545 41.472 
" clip-path="url(#pbdb9dc22b6)" style="fill: none; stroke: #b0b0b0; stroke-width: 0.8; stroke-linecap: square"/>
     </g>
     <g id="line2d_8">
      <g>
       <use xlink:href="#mc7be7d826f" x="263.214545" y="307.584" style="stroke: #000000; stroke-width: 0.8"/>
      </g>
     </g>
     <g id="text_4">
      <!-- 30 -->
      <g transform="translate(253.034545 326.7415) scale(0.16 -0.16)">
       <defs>
        <path id="DejaVuSans-33" d="M 2597 2516 
Q 3050 2419 3304 2112 
Q 3559 1806 3559 1356 
Q 3559 666 3084 287 
Q 2609 -91 1734 -91 
Q 1441 -91 1130 -33 
Q 819 25 488 141 
L 488 750 
Q 750 597 1062 519 
Q 1375 441 1716 441 
Q 2309 441 2620 675 
Q 2931 909 2931 1356 
Q 2931 1769 2642 2001 
Q 2353 2234 1838 2234 
L 1294 2234 
L 1294 2753 
L 1863 2753 
Q 2328 2753 2575 2939 
Q 2822 3125 2822 3475 
Q 2822 3834 2567 4026 
Q 2313 4219 1838 4219 
Q 1578 4219 1281 4162 
Q 984 4106 628 3988 
L 628 4550 
Q 988 4650 1302 4700 
Q 1616 4750 1894 4750 
Q 2613 4750 3031 4423 
Q 3450 4097 3450 3541 
Q 3450 3153 3228 2886 
Q 3006 2619 2597 2516 
z
" transform="scale(0.015625)"/>
       </defs>
       <use xlink:href="#DejaVuSans-33"/>
       <use xlink:href="#DejaVuSans-30" x="63.623047"/>
      </g>
     </g>
    </g>
    <g id="xtick_5">
     <g id="line2d_9">
      <path d="M 330.850909 307.584 
L 330.850909 41.472 
" clip-path="url(#pbdb9dc22b6)" style="fill: none; stroke: #b0b0b0; stroke-width: 0.8; stroke-linecap: square"/>
     </g>
     <g id="line2d_10">
      <g>
       <use xlink:href="#mc7be7d826f" x="330.850909" y="307.584" style="stroke: #000000; stroke-width: 0.8"/>
      </g>
     </g>
     <g id="text_5">
      <!-- 40 -->
      <g transform="translate(320.670909 326.7415) scale(0.16 -0.16)">
       <defs>
        <path id="DejaVuSans-34" d="M 2419 4116 
L 825 1625 
L 2419 1625 
L 2419 4116 
z
M 2253 4666 
L 3047 4666 
L 3047 1625 
L 3713 1625 
L 3713 1100 
L 3047 1100 
L 3047 0 
L 2419 0 
L 2419 1100 
L 313 1100 
L 313 1709 
L 2253 4666 
z
" transform="scale(0.015625)"/>
       </defs>
       <use xlink:href="#DejaVuSans-34"/>
       <use xlink:href="#DejaVuSans-30" x="63.623047"/>
      </g>
     </g>
    </g>
    <g id="xtick_6">
     <g id="line2d_11">
      <path d="M 398.487273 307.584 
L 398.487273 41.472 
" clip-path="url(#pbdb9dc22b6)" style="fill: none; stroke: #b0b0b0; stroke-width: 0.8; stroke-linecap: square"/>
     </g>
     <g id="line2d_12">
      <g>
       <use xlink:href="#mc7be7d826f" x="398.487273" y="307.584" style="stroke: #000000; stroke-width: 0.8"/>
      </g>
     </g>
     <g id="text_6">
      <!-- 50 -->
      <g transform="translate(388.307273 326.7415) scale(0.16 -0.16)">
       <defs>
        <path id="DejaVuSans-35" d="M 691 4666 
L 3169 4666 
L 3169 4134 
L 1269 4134 
L 1269 2991 
Q 1406 3038 1543 3061 
Q 1681 3084 1819 3084 
Q 2600 3084 3056 2656 
Q 3513 2228 3513 1497 
Q 3513 744 3044 326 
Q 2575 -91 1722 -91 
Q 1428 -91 1123 -41 
Q 819 9 494 109 
L 494 744 
Q 775 591 1075 516 
Q 1375 441 1709 441 
Q 2250 441 2565 725 
Q 2881 1009 2881 1497 
Q 2881 1984 2565 2268 
Q 2250 2553 1709 2553 
Q 1456 2553 1204 2497 
Q 953 2441 691 2322 
L 691 4666 
z
" transform="scale(0.015625)"/>
       </defs>
       <use xlink:href="#DejaVuSans-35"/>
       <use xlink:href="#DejaVuSans-30" x="63.623047"/>
      </g>
     </g>
    </g>
    <g id="text_7">
     <!-- Dimension -->
     <g transform="translate(193.6375 346.2265) scale(0.16 -0.16)">
      <defs>
       <path id="DejaVuSans-44" d="M 1259 4147 
L 1259 519 
L 2022 519 
Q 2988 519 3436 956 
Q 3884 1394 3884 2338 
Q 3884 3275 3436 3711 
Q 2988 4147 2022 4147 
L 1259 4147 
z
M 628 4666 
L 1925 4666 
Q 3281 4666 3915 4102 
Q 4550 3538 4550 2338 
Q 4550 1131 3912 565 
Q 3275 0 1925 0 
L 628 0 
L 628 4666 
z
" transform="scale(0.015625)"/>
       <path id="DejaVuSans-69" d="M 603 3500 
L 1178 3500 
L 1178 0 
L 603 0 
L 603 3500 
z
M 603 4863 
L 1178 4863 
L 1178 4134 
L 603 4134 
L 603 4863 
z
" transform="scale(0.015625)"/>
       <path id="DejaVuSans-6d" d="M 3328 2828 
Q 3544 3216 3844 3400 
Q 4144 3584 4550 3584 
Q 5097 3584 5394 3201 
Q 5691 2819 5691 2113 
L 5691 0 
L 5113 0 
L 5113 2094 
Q 5113 2597 4934 2840 
Q 4756 3084 4391 3084 
Q 3944 3084 3684 2787 
Q 3425 2491 3425 1978 
L 3425 0 
L 2847 0 
L 2847 2094 
Q 2847 2600 2669 2842 
Q 2491 3084 2119 3084 
Q 1678 3084 1418 2786 
Q 1159 2488 1159 1978 
L 1159 0 
L 581 0 
L 581 3500 
L 1159 3500 
L 1159 2956 
Q 1356 3278 1631 3431 
Q 1906 3584 2284 3584 
Q 2666 3584 2933 3390 
Q 3200 3197 3328 2828 
z
" transform="scale(0.015625)"/>
       <path id="DejaVuSans-65" d="M 3597 1894 
L 3597 1613 
L 953 1613 
Q 991 1019 1311 708 
Q 1631 397 2203 397 
Q 2534 397 2845 478 
Q 3156 559 3463 722 
L 3463 178 
Q 3153 47 2828 -22 
Q 2503 -91 2169 -91 
Q 1331 -91 842 396 
Q 353 884 353 1716 
Q 353 2575 817 3079 
Q 1281 3584 2069 3584 
Q 2775 3584 3186 3129 
Q 3597 2675 3597 1894 
z
M 3022 2063 
Q 3016 2534 2758 2815 
Q 2500 3097 2075 3097 
Q 1594 3097 1305 2825 
Q 1016 2553 972 2059 
L 3022 2063 
z
" transform="scale(0.015625)"/>
       <path id="DejaVuSans-6e" d="M 3513 2113 
L 3513 0 
L 2938 0 
L 2938 2094 
Q 2938 2591 2744 2837 
Q 2550 3084 2163 3084 
Q 1697 3084 1428 2787 
Q 1159 2491 1159 1978 
L 1159 0 
L 581 0 
L 581 3500 
L 1159 3500 
L 1159 2956 
Q 1366 3272 1645 3428 
Q 1925 3584 2291 3584 
Q 2894 3584 3203 3211 
Q 3513 2838 3513 2113 
z
" transform="scale(0.015625)"/>
       <path id="DejaVuSans-73" d="M 2834 3397 
L 2834 2853 
Q 2591 2978 2328 3040 
Q 2066 3103 1784 3103 
Q 1356 3103 1142 2972 
Q 928 2841 928 2578 
Q 928 2378 1081 2264 
Q 1234 2150 1697 2047 
L 1894 2003 
Q 2506 1872 2764 1633 
Q 3022 1394 3022 966 
Q 3022 478 2636 193 
Q 2250 -91 1575 -91 
Q 1294 -91 989 -36 
Q 684 19 347 128 
L 347 722 
Q 666 556 975 473 
Q 1284 391 1588 391 
Q 1994 391 2212 530 
Q 2431 669 2431 922 
Q 2431 1156 2273 1281 
Q 2116 1406 1581 1522 
L 1381 1569 
Q 847 1681 609 1914 
Q 372 2147 372 2553 
Q 372 3047 722 3315 
Q 1072 3584 1716 3584 
Q 2034 3584 2315 3537 
Q 2597 3491 2834 3397 
z
" transform="scale(0.015625)"/>
       <path id="DejaVuSans-6f" d="M 1959 3097 
Q 1497 3097 1228 2736 
Q 959 2375 959 1747 
Q 959 1119 1226 758 
Q 1494 397 1959 397 
Q 2419 397 2687 759 
Q 2956 1122 2956 1747 
Q 2956 2369 2687 2733 
Q 2419 3097 1959 3097 
z
M 1959 3584 
Q 2709 3584 3137 3096 
Q 3566 2609 3566 1747 
Q 3566 888 3137 398 
Q 2709 -91 1959 -91 
Q 1206 -91 779 398 
Q 353 888 353 1747 
Q 353 2609 779 3096 
Q 1206 3584 1959 3584 
z
" transform="scale(0.015625)"/>
      </defs>
      <use xlink:href="#DejaVuSans-44"/>
      <use xlink:href="#DejaVuSans-69" x="77.001953"/>
      <use xlink:href="#DejaVuSans-6d" x="104.785156"/>
      <use xlink:href="#DejaVuSans-65" x="202.197266"/>
      <use xlink:href="#DejaVuSans-6e" x="263.720703"/>
      <use xlink:href="#DejaVuSans-73" x="327.099609"/>
      <use xlink:href="#DejaVuSans-69" x="379.199219"/>
      <use xlink:href="#DejaVuSans-6f" x="406.982422"/>
      <use xlink:href="#DejaVuSans-6e" x="468.164062"/>
     </g>
    </g>
   </g>
   <g id="matplotlib.axis_2">
    <g id="ytick_1">
     <g id="line2d_13">
      <path d="M 57.6 294.758436 
L 414.72 294.758436 
" clip-path="url(#pbdb9dc22b6)" style="fill: none; stroke: #b0b0b0; stroke-width: 0.8; stroke-linecap: square"/>
     </g>
     <g id="line2d_14">
      <defs>
       <path id="mc956362b6f" d="M 0 0 
L -3.5 0 
" style="stroke: #000000; stroke-width: 0.8"/>
      </defs>
      <g>
       <use xlink:href="#mc956362b6f" x="57.6" y="294.758436" style="stroke: #000000; stroke-width: 0.8"/>
      </g>
     </g>
     <g id="text_8">
      <!-- 0.1050 -->
      <g transform="translate(-5.385 300.837186) scale(0.16 -0.16)">
       <defs>
        <path id="DejaVuSans-2e" d="M 684 794 
L 1344 794 
L 1344 0 
L 684 0 
L 684 794 
z
" transform="scale(0.015625)"/>
       </defs>
       <use xlink:href="#DejaVuSans-30"/>
       <use xlink:href="#DejaVuSans-2e" x="63.623047"/>
       <use xlink:href="#DejaVuSans-31" x="95.410156"/>
       <use xlink:href="#DejaVuSans-30" x="159.033203"/>
       <use xlink:href="#DejaVuSans-35" x="222.65625"/>
       <use xlink:href="#DejaVuSans-30" x="286.279297"/>
      </g>
     </g>
    </g>
    <g id="ytick_2">
     <g id="line2d_15">
      <path d="M 57.6 261.39016 
L 414.72 261.39016 
" clip-path="url(#pbdb9dc22b6)" style="fill: none; stroke: #b0b0b0; stroke-width: 0.8; stroke-linecap: square"/>
     </g>
     <g id="line2d_16">
      <g>
       <use xlink:href="#mc956362b6f" x="57.6" y="261.39016" style="stroke: #000000; stroke-width: 0.8"/>
      </g>
     </g>
     <g id="text_9">
      <!-- 0.1075 -->
      <g transform="translate(-5.385 267.46891) scale(0.16 -0.16)">
       <defs>
        <path id="DejaVuSans-37" d="M 525 4666 
L 3525 4666 
L 3525 4397 
L 1831 0 
L 1172 0 
L 2766 4134 
L 525 4134 
L 525 4666 
z
" transform="scale(0.015625)"/>
       </defs>
       <use xlink:href="#DejaVuSans-30"/>
       <use xlink:href="#DejaVuSans-2e" x="63.623047"/>
       <use xlink:href="#DejaVuSans-31" x="95.410156"/>
       <use xlink:href="#DejaVuSans-30" x="159.033203"/>
       <use xlink:href="#DejaVuSans-37" x="222.65625"/>
       <use xlink:href="#DejaVuSans-35" x="286.279297"/>
      </g>
     </g>
    </g>
    <g id="ytick_3">
     <g id="line2d_17">
      <path d="M 57.6 228.021884 
L 414.72 228.021884 
" clip-path="url(#pbdb9dc22b6)" style="fill: none; stroke: #b0b0b0; stroke-width: 0.8; stroke-linecap: square"/>
     </g>
     <g id="line2d_18">
      <g>
       <use xlink:href="#mc956362b6f" x="57.6" y="228.021884" style="stroke: #000000; stroke-width: 0.8"/>
      </g>
     </g>
     <g id="text_10">
      <!-- 0.1100 -->
      <g transform="translate(-5.385 234.100634) scale(0.16 -0.16)">
       <use xlink:href="#DejaVuSans-30"/>
       <use xlink:href="#DejaVuSans-2e" x="63.623047"/>
       <use xlink:href="#DejaVuSans-31" x="95.410156"/>
       <use xlink:href="#DejaVuSans-31" x="159.033203"/>
       <use xlink:href="#DejaVuSans-30" x="222.65625"/>
       <use xlink:href="#DejaVuSans-30" x="286.279297"/>
      </g>
     </g>
    </g>
    <g id="ytick_4">
     <g id="line2d_19">
      <path d="M 57.6 194.653608 
L 414.72 194.653608 
" clip-path="url(#pbdb9dc22b6)" style="fill: none; stroke: #b0b0b0; stroke-width: 0.8; stroke-linecap: square"/>
     </g>
     <g id="line2d_20">
      <g>
       <use xlink:href="#mc956362b6f" x="57.6" y="194.653608" style="stroke: #000000; stroke-width: 0.8"/>
      </g>
     </g>
     <g id="text_11">
      <!-- 0.1125 -->
      <g transform="translate(-5.385 200.732358) scale(0.16 -0.16)">
       <use xlink:href="#DejaVuSans-30"/>
       <use xlink:href="#DejaVuSans-2e" x="63.623047"/>
       <use xlink:href="#DejaVuSans-31" x="95.410156"/>
       <use xlink:href="#DejaVuSans-31" x="159.033203"/>
       <use xlink:href="#DejaVuSans-32" x="222.65625"/>
       <use xlink:href="#DejaVuSans-35" x="286.279297"/>
      </g>
     </g>
    </g>
    <g id="ytick_5">
     <g id="line2d_21">
      <path d="M 57.6 161.285333 
L 414.72 161.285333 
" clip-path="url(#pbdb9dc22b6)" style="fill: none; stroke: #b0b0b0; stroke-width: 0.8; stroke-linecap: square"/>
     </g>
     <g id="line2d_22">
      <g>
       <use xlink:href="#mc956362b6f" x="57.6" y="161.285333" style="stroke: #000000; stroke-width: 0.8"/>
      </g>
     </g>
     <g id="text_12">
      <!-- 0.1150 -->
      <g transform="translate(-5.385 167.364083) scale(0.16 -0.16)">
       <use xlink:href="#DejaVuSans-30"/>
       <use xlink:href="#DejaVuSans-2e" x="63.623047"/>
       <use xlink:href="#DejaVuSans-31" x="95.410156"/>
       <use xlink:href="#DejaVuSans-31" x="159.033203"/>
       <use xlink:href="#DejaVuSans-35" x="222.65625"/>
       <use xlink:href="#DejaVuSans-30" x="286.279297"/>
      </g>
     </g>
    </g>
    <g id="ytick_6">
     <g id="line2d_23">
      <path d="M 57.6 127.917057 
L 414.72 127.917057 
" clip-path="url(#pbdb9dc22b6)" style="fill: none; stroke: #b0b0b0; stroke-width: 0.8; stroke-linecap: square"/>
     </g>
     <g id="line2d_24">
      <g>
       <use xlink:href="#mc956362b6f" x="57.6" y="127.917057" style="stroke: #000000; stroke-width: 0.8"/>
      </g>
     </g>
     <g id="text_13">
      <!-- 0.1175 -->
      <g transform="translate(-5.385 133.995807) scale(0.16 -0.16)">
       <use xlink:href="#DejaVuSans-30"/>
       <use xlink:href="#DejaVuSans-2e" x="63.623047"/>
       <use xlink:href="#DejaVuSans-31" x="95.410156"/>
       <use xlink:href="#DejaVuSans-31" x="159.033203"/>
       <use xlink:href="#DejaVuSans-37" x="222.65625"/>
       <use xlink:href="#DejaVuSans-35" x="286.279297"/>
      </g>
     </g>
    </g>
    <g id="ytick_7">
     <g id="line2d_25">
      <path d="M 57.6 94.548781 
L 414.72 94.548781 
" clip-path="url(#pbdb9dc22b6)" style="fill: none; stroke: #b0b0b0; stroke-width: 0.8; stroke-linecap: square"/>
     </g>
     <g id="line2d_26">
      <g>
       <use xlink:href="#mc956362b6f" x="57.6" y="94.548781" style="stroke: #000000; stroke-width: 0.8"/>
      </g>
     </g>
     <g id="text_14">
      <!-- 0.1200 -->
      <g transform="translate(-5.385 100.627531) scale(0.16 -0.16)">
       <use xlink:href="#DejaVuSans-30"/>
       <use xlink:href="#DejaVuSans-2e" x="63.623047"/>
       <use xlink:href="#DejaVuSans-31" x="95.410156"/>
       <use xlink:href="#DejaVuSans-32" x="159.033203"/>
       <use xlink:href="#DejaVuSans-30" x="222.65625"/>
       <use xlink:href="#DejaVuSans-30" x="286.279297"/>
      </g>
     </g>
    </g>
    <g id="ytick_8">
     <g id="line2d_27">
      <path d="M 57.6 61.180505 
L 414.72 61.180505 
" clip-path="url(#pbdb9dc22b6)" style="fill: none; stroke: #b0b0b0; stroke-width: 0.8; stroke-linecap: square"/>
     </g>
     <g id="line2d_28">
      <g>
       <use xlink:href="#mc956362b6f" x="57.6" y="61.180505" style="stroke: #000000; stroke-width: 0.8"/>
      </g>
     </g>
     <g id="text_15">
      <!-- 0.1225 -->
      <g transform="translate(-5.385 67.259255) scale(0.16 -0.16)">
       <use xlink:href="#DejaVuSans-30"/>
       <use xlink:href="#DejaVuSans-2e" x="63.623047"/>
       <use xlink:href="#DejaVuSans-31" x="95.410156"/>
       <use xlink:href="#DejaVuSans-32" x="159.033203"/>
       <use xlink:href="#DejaVuSans-32" x="222.65625"/>
       <use xlink:href="#DejaVuSans-35" x="286.279297"/>
      </g>
     </g>
    </g>
    <g id="text_16">
     <!-- Mean Error in mW -->
     <g transform="translate(-12.7125 246.44425) rotate(-90) scale(0.16 -0.16)">
      <defs>
       <path id="DejaVuSans-4d" d="M 628 4666 
L 1569 4666 
L 2759 1491 
L 3956 4666 
L 4897 4666 
L 4897 0 
L 4281 0 
L 4281 4097 
L 3078 897 
L 2444 897 
L 1241 4097 
L 1241 0 
L 628 0 
L 628 4666 
z
" transform="scale(0.015625)"/>
       <path id="DejaVuSans-61" d="M 2194 1759 
Q 1497 1759 1228 1600 
Q 959 1441 959 1056 
Q 959 750 1161 570 
Q 1363 391 1709 391 
Q 2188 391 2477 730 
Q 2766 1069 2766 1631 
L 2766 1759 
L 2194 1759 
z
M 3341 1997 
L 3341 0 
L 2766 0 
L 2766 531 
Q 2569 213 2275 61 
Q 1981 -91 1556 -91 
Q 1019 -91 701 211 
Q 384 513 384 1019 
Q 384 1609 779 1909 
Q 1175 2209 1959 2209 
L 2766 2209 
L 2766 2266 
Q 2766 2663 2505 2880 
Q 2244 3097 1772 3097 
Q 1472 3097 1187 3025 
Q 903 2953 641 2809 
L 641 3341 
Q 956 3463 1253 3523 
Q 1550 3584 1831 3584 
Q 2591 3584 2966 3190 
Q 3341 2797 3341 1997 
z
" transform="scale(0.015625)"/>
       <path id="DejaVuSans-20" transform="scale(0.015625)"/>
       <path id="DejaVuSans-45" d="M 628 4666 
L 3578 4666 
L 3578 4134 
L 1259 4134 
L 1259 2753 
L 3481 2753 
L 3481 2222 
L 1259 2222 
L 1259 531 
L 3634 531 
L 3634 0 
L 628 0 
L 628 4666 
z
" transform="scale(0.015625)"/>
       <path id="DejaVuSans-72" d="M 2631 2963 
Q 2534 3019 2420 3045 
Q 2306 3072 2169 3072 
Q 1681 3072 1420 2755 
Q 1159 2438 1159 1844 
L 1159 0 
L 581 0 
L 581 3500 
L 1159 3500 
L 1159 2956 
Q 1341 3275 1631 3429 
Q 1922 3584 2338 3584 
Q 2397 3584 2469 3576 
Q 2541 3569 2628 3553 
L 2631 2963 
z
" transform="scale(0.015625)"/>
       <path id="DejaVuSans-57" d="M 213 4666 
L 850 4666 
L 1831 722 
L 2809 4666 
L 3519 4666 
L 4500 722 
L 5478 4666 
L 6119 4666 
L 4947 0 
L 4153 0 
L 3169 4050 
L 2175 0 
L 1381 0 
L 213 4666 
z
" transform="scale(0.015625)"/>
      </defs>
      <use xlink:href="#DejaVuSans-4d"/>
      <use xlink:href="#DejaVuSans-65" x="86.279297"/>
      <use xlink:href="#DejaVuSans-61" x="147.802734"/>
      <use xlink:href="#DejaVuSans-6e" x="209.082031"/>
      <use xlink:href="#DejaVuSans-20" x="272.460938"/>
      <use xlink:href="#DejaVuSans-45" x="304.248047"/>
      <use xlink:href="#DejaVuSans-72" x="367.431641"/>
      <use xlink:href="#DejaVuSans-72" x="406.794922"/>
      <use xlink:href="#DejaVuSans-6f" x="445.658203"/>
      <use xlink:href="#DejaVuSans-72" x="506.839844"/>
      <use xlink:href="#DejaVuSans-20" x="547.953125"/>
      <use xlink:href="#DejaVuSans-69" x="579.740234"/>
      <use xlink:href="#DejaVuSans-6e" x="607.523438"/>
      <use xlink:href="#DejaVuSans-20" x="670.902344"/>
      <use xlink:href="#DejaVuSans-6d" x="702.689453"/>
      <use xlink:href="#DejaVuSans-57" x="800.101562"/>
     </g>
    </g>
   </g>
   <g id="line2d_29">
    <path d="M 73.832727 136.316818 
L 77.112066 137.361166 
L 80.391405 138.405515 
L 83.670744 139.449863 
L 86.950083 140.494212 
L 90.229421 141.53856 
L 93.50876 142.582908 
L 96.788099 143.627257 
L 100.067438 144.671605 
L 103.346777 145.715954 
L 106.626116 146.760302 
L 109.905455 147.80465 
L 113.184793 148.848999 
L 116.464132 149.893347 
L 119.743471 150.937695 
L 123.02281 151.982044 
L 126.302149 153.026392 
L 129.581488 154.070741 
L 132.860826 155.115089 
L 136.140165 156.159437 
L 139.419504 157.203786 
L 142.698843 158.248134 
L 145.978182 159.292483 
L 149.257521 160.336831 
L 152.53686 161.381179 
L 155.816198 162.425528 
L 159.095537 163.469876 
L 162.374876 164.514224 
L 165.654215 165.558573 
L 168.933554 166.602921 
L 172.212893 167.64727 
L 175.492231 168.691618 
L 178.77157 169.735966 
L 182.050909 170.780315 
L 185.330248 171.824663 
L 188.609587 172.869012 
L 191.888926 173.91336 
L 195.168264 174.957708 
L 198.447603 176.002057 
L 201.726942 177.046405 
L 205.006281 178.090753 
L 208.28562 179.135102 
L 211.564959 180.17945 
L 214.844298 181.223799 
L 218.123636 182.268147 
L 221.402975 183.312495 
L 224.682314 184.356844 
L 227.961653 185.401192 
L 231.240992 186.44554 
L 234.520331 187.489889 
L 237.799669 188.534237 
L 241.079008 189.578586 
L 244.358347 190.622934 
L 247.637686 191.667282 
L 250.917025 192.711631 
L 254.196364 193.755979 
L 257.475702 194.800328 
L 260.755041 195.844676 
L 264.03438 196.889024 
L 267.313719 197.933373 
L 270.593058 198.977721 
L 273.872397 200.022069 
L 277.151736 201.066418 
L 280.431074 202.110766 
L 283.710413 203.155115 
L 286.989752 204.199463 
L 290.269091 205.243811 
L 293.54843 206.28816 
L 296.827769 207.332508 
L 300.107107 208.376857 
L 303.386446 209.421205 
L 306.665785 210.465553 
L 309.945124 211.509902 
L 313.224463 212.55425 
L 316.503802 213.598598 
L 319.78314 214.642947 
L 323.062479 215.687295 
L 326.341818 216.731644 
L 329.621157 217.775992 
L 332.900496 218.82034 
L 336.179835 219.864689 
L 339.459174 220.909037 
L 342.738512 221.953386 
L 346.017851 222.997734 
L 349.29719 224.042082 
L 352.576529 225.086431 
L 355.855868 226.130779 
L 359.135207 227.175127 
L 362.414545 228.219476 
L 365.693884 229.263824 
L 368.973223 230.308173 
L 372.252562 231.352521 
L 375.531901 232.396869 
L 378.81124 233.441218 
L 382.090579 234.485566 
L 385.369917 235.529915 
L 388.649256 236.574263 
L 391.928595 237.618611 
L 395.207934 238.66296 
L 398.487273 239.707308 
" clip-path="url(#pbdb9dc22b6)" style="fill: none; stroke: #0000ff; stroke-width: 2.25; stroke-linecap: square"/>
   </g>
   <g id="patch_3">
    <path d="M 57.6 307.584 
L 57.6 41.472 
" style="fill: none; stroke: #000000; stroke-width: 0.8; stroke-linejoin: miter; stroke-linecap: square"/>
   </g>
   <g id="patch_4">
    <path d="M 414.72 307.584 
L 414.72 41.472 
" style="fill: none; stroke: #000000; stroke-width: 0.8; stroke-linejoin: miter; stroke-linecap: square"/>
   </g>
   <g id="patch_5">
    <path d="M 57.6 307.584 
L 414.72 307.584 
" style="fill: none; stroke: #000000; stroke-width: 0.8; stroke-linejoin: miter; stroke-linecap: square"/>
   </g>
   <g id="patch_6">
    <path d="M 57.6 41.472 
L 414.72 41.472 
" style="fill: none; stroke: #000000; stroke-width: 0.8; stroke-linejoin: miter; stroke-linecap: square"/>
   </g>
  </g>
 </g>
 <defs>
  <clipPath id="pbdb9dc22b6">
   <rect x="57.6" y="41.472" width="357.12" height="266.112"/>
  </clipPath>
 </defs>
</svg>
