<?xml version="1.0" encoding="utf-8" standalone="no"?>
<!DOCTYPE svg PUBLIC "-//W3C//DTD SVG 1.1//EN"
  "http://www.w3.org/Graphics/SVG/1.1/DTD/svg11.dtd">
<svg xmlns:xlink="http://www.w3.org/1999/xlink" width="576pt" height="432pt" viewBox="0 0 576 432" xmlns="http://www.w3.org/2000/svg" version="1.1">
 <metadata>
  <rdf:RDF xmlns:dc="http://purl.org/dc/elements/1.1/" xmlns:cc="http://creativecommons.org/ns#" xmlns:rdf="http://www.w3.org/1999/02/22-rdf-syntax-ns#">
   <cc:Work>
    <dc:type rdf:resource="http://purl.org/dc/dcmitype/StillImage"/>
    <dc:date>2025-01-25T14:53:02.359023</dc:date>
    <dc:format>image/svg+xml</dc:format>
    <dc:creator>
     <cc:Agent>
      <dc:title>Matplotlib v3.9.3, https://matplotlib.org/</dc:title>
     </cc:Agent>
    </dc:creator>
   </cc:Work>
  </rdf:RDF>
 </metadata>
 <defs>
  <style type="text/css">*{stroke-linejoin: round; stroke-linecap: butt}</style>
 </defs>
 <g id="figure_1">
  <g id="patch_1">
   <path d="M 0 432 
L 576 432 
L 576 0 
L 0 0 
z
" style="fill: #ffffff"/>
  </g>
  <g id="axes_1">
   <g id="patch_2">
    <path d="M 72 384.48 
L 518.4 384.48 
L 518.4 51.84 
L 72 51.84 
z
" style="fill: #ffffff"/>
   </g>
   <g id="PathCollection_1">
    <defs>
     <path id="meabcd7d07e" d="M 0 3 
C 0.795609 3 1.55874 2.683901 2.12132 2.12132 
C 2.683901 1.55874 3 0.795609 3 0 
C 3 -0.795609 2.683901 -1.55874 2.12132 -2.12132 
C 1.55874 -2.683901 0.795609 -3 0 -3 
C -0.795609 -3 -1.55874 -2.683901 -2.12132 -2.12132 
C -2.683901 -1.55874 -3 -0.795609 -3 0 
C -3 0.795609 -2.683901 1.55874 -2.12132 2.12132 
C -1.55874 2.683901 -0.795609 3 0 3 
z
" style="stroke: #0000ff; stroke-opacity: 0.8"/>
    </defs>
    <g clip-path="url(#p61f0234240)">
     <use xlink:href="#meabcd7d07e" x="92.290909" y="369.36" style="fill: #0000ff; fill-opacity: 0.8; stroke: #0000ff; stroke-opacity: 0.8"/>
     <use xlink:href="#meabcd7d07e" x="193.745455" y="258.198323" style="fill: #0000ff; fill-opacity: 0.8; stroke: #0000ff; stroke-opacity: 0.8"/>
     <use xlink:href="#meabcd7d07e" x="234.327273" y="222.988743" style="fill: #0000ff; fill-opacity: 0.8; stroke: #0000ff; stroke-opacity: 0.8"/>
     <use xlink:href="#meabcd7d07e" x="295.2" y="199.348024" style="fill: #0000ff; fill-opacity: 0.8; stroke: #0000ff; stroke-opacity: 0.8"/>
     <use xlink:href="#meabcd7d07e" x="335.781818" y="179.731257" style="fill: #0000ff; fill-opacity: 0.8; stroke: #0000ff; stroke-opacity: 0.8"/>
     <use xlink:href="#meabcd7d07e" x="356.072727" y="163.53485" style="fill: #0000ff; fill-opacity: 0.8; stroke: #0000ff; stroke-opacity: 0.8"/>
     <use xlink:href="#meabcd7d07e" x="376.363636" y="150.15521" style="fill: #0000ff; fill-opacity: 0.8; stroke: #0000ff; stroke-opacity: 0.8"/>
     <use xlink:href="#meabcd7d07e" x="396.654545" y="137.781557" style="fill: #0000ff; fill-opacity: 0.8; stroke: #0000ff; stroke-opacity: 0.8"/>
     <use xlink:href="#meabcd7d07e" x="416.945455" y="130.136048" style="fill: #0000ff; fill-opacity: 0.8; stroke: #0000ff; stroke-opacity: 0.8"/>
     <use xlink:href="#meabcd7d07e" x="451.44" y="120.880958" style="fill: #0000ff; fill-opacity: 0.8; stroke: #0000ff; stroke-opacity: 0.8"/>
     <use xlink:href="#meabcd7d07e" x="463.614545" y="113.235449" style="fill: #0000ff; fill-opacity: 0.8; stroke: #0000ff; stroke-opacity: 0.8"/>
     <use xlink:href="#meabcd7d07e" x="473.76" y="104.282156" style="fill: #0000ff; fill-opacity: 0.8; stroke: #0000ff; stroke-opacity: 0.8"/>
     <use xlink:href="#meabcd7d07e" x="483.905455" y="98.648623" style="fill: #0000ff; fill-opacity: 0.8; stroke: #0000ff; stroke-opacity: 0.8"/>
     <use xlink:href="#meabcd7d07e" x="494.050909" y="91.807904" style="fill: #0000ff; fill-opacity: 0.8; stroke: #0000ff; stroke-opacity: 0.8"/>
     <use xlink:href="#meabcd7d07e" x="498.109091" y="66.96" style="fill: #0000ff; fill-opacity: 0.8; stroke: #0000ff; stroke-opacity: 0.8"/>
    </g>
   </g>
   <g id="PolyCollection_1">
    <path d="M 92.290909 298.729957 
L 92.290909 360.767079 
L 96.390083 357.837133 
L 100.489256 354.997133 
L 104.58843 352.161505 
L 108.687603 349.326139 
L 112.786777 346.493673 
L 116.88595 343.658356 
L 120.985124 340.822296 
L 125.084298 337.976282 
L 129.183471 335.140395 
L 133.282645 332.304508 
L 137.381818 329.46862 
L 141.480992 326.632733 
L 145.580165 323.796846 
L 149.679339 320.960959 
L 153.778512 318.125071 
L 157.877686 315.289184 
L 161.97686 312.453297 
L 166.076033 309.616577 
L 170.175207 306.729126 
L 174.27438 303.829197 
L 178.373554 300.928468 
L 182.472727 298.027738 
L 186.571901 295.127009 
L 190.671074 292.22628 
L 194.770248 289.32555 
L 198.869421 286.443769 
L 202.968595 283.637685 
L 207.067769 280.743534 
L 211.166942 277.849383 
L 215.266116 274.977022 
L 219.365289 272.173941 
L 223.464463 269.37086 
L 227.563636 266.567779 
L 231.66281 263.764698 
L 235.761983 260.95985 
L 239.861157 258.154435 
L 243.960331 255.349021 
L 248.059504 252.543606 
L 252.158678 249.738191 
L 256.257851 246.877199 
L 260.357025 243.993936 
L 264.456198 241.114659 
L 268.555372 238.235461 
L 272.654545 235.39821 
L 276.753719 232.581273 
L 280.852893 229.764337 
L 284.952066 226.9474 
L 289.05124 224.130463 
L 293.150413 221.313527 
L 297.249587 218.49659 
L 301.34876 215.677855 
L 305.447934 212.858178 
L 309.547107 209.990844 
L 313.646281 207.07748 
L 317.745455 204.164116 
L 321.844628 201.250753 
L 325.943802 198.337389 
L 330.042975 195.580084 
L 334.142149 192.839333 
L 338.241322 190.098582 
L 342.340496 187.227862 
L 346.439669 184.450262 
L 350.538843 181.682743 
L 354.638017 178.915159 
L 358.73719 176.145289 
L 362.836364 173.375418 
L 366.935537 170.606924 
L 371.034711 167.818329 
L 375.133884 164.982257 
L 379.233058 162.152503 
L 383.332231 159.431383 
L 387.431405 156.69641 
L 391.530579 153.919786 
L 395.629752 151.116023 
L 399.728926 148.400206 
L 403.828099 145.68795 
L 407.927273 142.932521 
L 412.026446 140.188367 
L 416.12562 137.461802 
L 420.224793 134.733843 
L 424.323967 131.992107 
L 428.42314 129.307127 
L 432.522314 127.017485 
L 436.621488 124.590319 
L 440.720661 122.301425 
L 444.819835 120.084857 
L 448.919008 117.963112 
L 453.018182 115.728508 
L 457.117355 113.484876 
L 461.216529 111.342326 
L 465.315702 109.257093 
L 469.414876 107.121132 
L 473.51405 104.962723 
L 477.613223 102.802127 
L 481.712397 100.643001 
L 485.81157 98.495845 
L 489.910744 96.40519 
L 494.009917 94.278054 
L 498.109091 92.204266 
L 498.109091 70.607549 
L 498.109091 70.607549 
L 494.009917 73.406439 
L 489.910744 76.206955 
L 485.81157 79.006708 
L 481.712397 81.80717 
L 477.613223 84.604086 
L 473.51405 87.406871 
L 469.414876 90.20748 
L 465.315702 93.004214 
L 461.216529 95.804962 
L 457.117355 98.577969 
L 453.018182 101.403537 
L 448.919008 104.202225 
L 444.819835 106.947749 
L 440.720661 109.765565 
L 436.621488 112.535097 
L 432.522314 115.353849 
L 428.42314 118.109411 
L 424.323967 120.750101 
L 420.224793 123.460758 
L 416.12562 126.171187 
L 412.026446 128.911434 
L 407.927273 131.456907 
L 403.828099 134.067088 
L 399.728926 136.639219 
L 395.629752 139.228422 
L 391.530579 141.895545 
L 387.431405 144.275489 
L 383.332231 146.653762 
L 379.233058 148.932011 
L 375.133884 151.440241 
L 371.034711 153.87872 
L 366.935537 156.141067 
L 362.836364 158.330256 
L 358.73719 160.58602 
L 354.638017 162.809567 
L 350.538843 165.046143 
L 346.439669 167.293254 
L 342.340496 169.515168 
L 338.241322 171.697109 
L 334.142149 173.898619 
L 330.042975 176.10127 
L 325.943802 178.263057 
L 321.844628 180.375718 
L 317.745455 182.592815 
L 313.646281 184.805017 
L 309.547107 186.934935 
L 305.447934 189.112636 
L 301.34876 191.338085 
L 297.249587 193.47724 
L 293.150413 195.628753 
L 289.05124 197.766271 
L 284.952066 199.874575 
L 280.852893 201.999079 
L 276.753719 204.091119 
L 272.654545 206.169887 
L 268.555372 208.253318 
L 264.456198 210.315781 
L 260.357025 212.391645 
L 256.257851 214.504498 
L 252.158678 216.62084 
L 248.059504 218.771765 
L 243.960331 220.922691 
L 239.861157 223.073617 
L 235.761983 225.224543 
L 231.66281 227.375468 
L 227.563636 229.509888 
L 223.464463 231.607587 
L 219.365289 233.696534 
L 215.266116 235.805244 
L 211.166942 237.904646 
L 207.067769 240.034502 
L 202.968595 242.128848 
L 198.869421 244.198999 
L 194.770248 246.292844 
L 190.671074 248.389679 
L 186.571901 250.486514 
L 182.472727 252.58349 
L 178.373554 254.680771 
L 174.27438 256.778052 
L 170.175207 258.875333 
L 166.076033 260.972613 
L 161.97686 263.069894 
L 157.877686 265.143109 
L 153.778512 267.204664 
L 149.679339 269.266589 
L 145.580165 271.328567 
L 141.480992 273.403585 
L 137.381818 275.507361 
L 133.282645 277.631729 
L 129.183471 279.784888 
L 125.084298 281.938046 
L 120.985124 284.046032 
L 116.88595 286.143735 
L 112.786777 288.241439 
L 108.687603 290.339142 
L 104.58843 292.436846 
L 100.489256 294.53455 
L 96.390083 296.632253 
L 92.290909 298.729957 
z
" clip-path="url(#p61f0234240)" style="fill: #ff0000; fill-opacity: 0.15"/>
   </g>
   <g id="matplotlib.axis_1">
    <g id="xtick_1">
     <g id="line2d_1">
      <path d="M 82.145455 384.48 
L 82.145455 51.84 
" clip-path="url(#p61f0234240)" style="fill: none; stroke: #b0b0b0; stroke-width: 0.8; stroke-linecap: square"/>
     </g>
     <g id="line2d_2">
      <defs>
       <path id="m2539375d1f" d="M 0 0 
L 0 3.5 
" style="stroke: #000000; stroke-width: 0.8"/>
      </defs>
      <g>
       <use xlink:href="#m2539375d1f" x="82.145455" y="384.48" style="stroke: #000000; stroke-width: 0.8"/>
      </g>
     </g>
     <g id="text_1">
      <!-- −17.5 -->
      <g transform="translate(57.629205 403.6375) scale(0.16 -0.16)">
       <defs>
        <path id="DejaVuSans-2212" d="M 678 2272 
L 4684 2272 
L 4684 1741 
L 678 1741 
L 678 2272 
z
" transform="scale(0.015625)"/>
        <path id="DejaVuSans-31" d="M 794 531 
L 1825 531 
L 1825 4091 
L 703 3866 
L 703 4441 
L 1819 4666 
L 2450 4666 
L 2450 531 
L 3481 531 
L 3481 0 
L 794 0 
L 794 531 
z
" transform="scale(0.015625)"/>
        <path id="DejaVuSans-37" d="M 525 4666 
L 3525 4666 
L 3525 4397 
L 1831 0 
L 1172 0 
L 2766 4134 
L 525 4134 
L 525 4666 
z
" transform="scale(0.015625)"/>
        <path id="DejaVuSans-2e" d="M 684 794 
L 1344 794 
L 1344 0 
L 684 0 
L 684 794 
z
" transform="scale(0.015625)"/>
        <path id="DejaVuSans-35" d="M 691 4666 
L 3169 4666 
L 3169 4134 
L 1269 4134 
L 1269 2991 
Q 1406 3038 1543 3061 
Q 1681 3084 1819 3084 
Q 2600 3084 3056 2656 
Q 3513 2228 3513 1497 
Q 3513 744 3044 326 
Q 2575 -91 1722 -91 
Q 1428 -91 1123 -41 
Q 819 9 494 109 
L 494 744 
Q 775 591 1075 516 
Q 1375 441 1709 441 
Q 2250 441 2565 725 
Q 2881 1009 2881 1497 
Q 2881 1984 2565 2268 
Q 2250 2553 1709 2553 
Q 1456 2553 1204 2497 
Q 953 2441 691 2322 
L 691 4666 
z
" transform="scale(0.015625)"/>
       </defs>
       <use xlink:href="#DejaVuSans-2212"/>
       <use xlink:href="#DejaVuSans-31" x="83.789062"/>
       <use xlink:href="#DejaVuSans-37" x="147.412109"/>
       <use xlink:href="#DejaVuSans-2e" x="211.035156"/>
       <use xlink:href="#DejaVuSans-35" x="242.822266"/>
      </g>
     </g>
    </g>
    <g id="xtick_2">
     <g id="line2d_3">
      <path d="M 132.872727 384.48 
L 132.872727 51.84 
" clip-path="url(#p61f0234240)" style="fill: none; stroke: #b0b0b0; stroke-width: 0.8; stroke-linecap: square"/>
     </g>
     <g id="line2d_4">
      <g>
       <use xlink:href="#m2539375d1f" x="132.872727" y="384.48" style="stroke: #000000; stroke-width: 0.8"/>
      </g>
     </g>
     <g id="text_2">
      <!-- −15.0 -->
      <g transform="translate(108.356477 403.6375) scale(0.16 -0.16)">
       <defs>
        <path id="DejaVuSans-30" d="M 2034 4250 
Q 1547 4250 1301 3770 
Q 1056 3291 1056 2328 
Q 1056 1369 1301 889 
Q 1547 409 2034 409 
Q 2525 409 2770 889 
Q 3016 1369 3016 2328 
Q 3016 3291 2770 3770 
Q 2525 4250 2034 4250 
z
M 2034 4750 
Q 2819 4750 3233 4129 
Q 3647 3509 3647 2328 
Q 3647 1150 3233 529 
Q 2819 -91 2034 -91 
Q 1250 -91 836 529 
Q 422 1150 422 2328 
Q 422 3509 836 4129 
Q 1250 4750 2034 4750 
z
" transform="scale(0.015625)"/>
       </defs>
       <use xlink:href="#DejaVuSans-2212"/>
       <use xlink:href="#DejaVuSans-31" x="83.789062"/>
       <use xlink:href="#DejaVuSans-35" x="147.412109"/>
       <use xlink:href="#DejaVuSans-2e" x="211.035156"/>
       <use xlink:href="#DejaVuSans-30" x="242.822266"/>
      </g>
     </g>
    </g>
    <g id="xtick_3">
     <g id="line2d_5">
      <path d="M 183.6 384.48 
L 183.6 51.84 
" clip-path="url(#p61f0234240)" style="fill: none; stroke: #b0b0b0; stroke-width: 0.8; stroke-linecap: square"/>
     </g>
     <g id="line2d_6">
      <g>
       <use xlink:href="#m2539375d1f" x="183.6" y="384.48" style="stroke: #000000; stroke-width: 0.8"/>
      </g>
     </g>
     <g id="text_3">
      <!-- −12.5 -->
      <g transform="translate(159.08375 403.6375) scale(0.16 -0.16)">
       <defs>
        <path id="DejaVuSans-32" d="M 1228 531 
L 3431 531 
L 3431 0 
L 469 0 
L 469 531 
Q 828 903 1448 1529 
Q 2069 2156 2228 2338 
Q 2531 2678 2651 2914 
Q 2772 3150 2772 3378 
Q 2772 3750 2511 3984 
Q 2250 4219 1831 4219 
Q 1534 4219 1204 4116 
Q 875 4013 500 3803 
L 500 4441 
Q 881 4594 1212 4672 
Q 1544 4750 1819 4750 
Q 2544 4750 2975 4387 
Q 3406 4025 3406 3419 
Q 3406 3131 3298 2873 
Q 3191 2616 2906 2266 
Q 2828 2175 2409 1742 
Q 1991 1309 1228 531 
z
" transform="scale(0.015625)"/>
       </defs>
       <use xlink:href="#DejaVuSans-2212"/>
       <use xlink:href="#DejaVuSans-31" x="83.789062"/>
       <use xlink:href="#DejaVuSans-32" x="147.412109"/>
       <use xlink:href="#DejaVuSans-2e" x="211.035156"/>
       <use xlink:href="#DejaVuSans-35" x="242.822266"/>
      </g>
     </g>
    </g>
    <g id="xtick_4">
     <g id="line2d_7">
      <path d="M 234.327273 384.48 
L 234.327273 51.84 
" clip-path="url(#p61f0234240)" style="fill: none; stroke: #b0b0b0; stroke-width: 0.8; stroke-linecap: square"/>
     </g>
     <g id="line2d_8">
      <g>
       <use xlink:href="#m2539375d1f" x="234.327273" y="384.48" style="stroke: #000000; stroke-width: 0.8"/>
      </g>
     </g>
     <g id="text_4">
      <!-- −10.0 -->
      <g transform="translate(209.811023 403.6375) scale(0.16 -0.16)">
       <use xlink:href="#DejaVuSans-2212"/>
       <use xlink:href="#DejaVuSans-31" x="83.789062"/>
       <use xlink:href="#DejaVuSans-30" x="147.412109"/>
       <use xlink:href="#DejaVuSans-2e" x="211.035156"/>
       <use xlink:href="#DejaVuSans-30" x="242.822266"/>
      </g>
     </g>
    </g>
    <g id="xtick_5">
     <g id="line2d_9">
      <path d="M 285.054545 384.48 
L 285.054545 51.84 
" clip-path="url(#p61f0234240)" style="fill: none; stroke: #b0b0b0; stroke-width: 0.8; stroke-linecap: square"/>
     </g>
     <g id="line2d_10">
      <g>
       <use xlink:href="#m2539375d1f" x="285.054545" y="384.48" style="stroke: #000000; stroke-width: 0.8"/>
      </g>
     </g>
     <g id="text_5">
      <!-- −7.5 -->
      <g transform="translate(265.628295 403.6375) scale(0.16 -0.16)">
       <use xlink:href="#DejaVuSans-2212"/>
       <use xlink:href="#DejaVuSans-37" x="83.789062"/>
       <use xlink:href="#DejaVuSans-2e" x="147.412109"/>
       <use xlink:href="#DejaVuSans-35" x="179.199219"/>
      </g>
     </g>
    </g>
    <g id="xtick_6">
     <g id="line2d_11">
      <path d="M 335.781818 384.48 
L 335.781818 51.84 
" clip-path="url(#p61f0234240)" style="fill: none; stroke: #b0b0b0; stroke-width: 0.8; stroke-linecap: square"/>
     </g>
     <g id="line2d_12">
      <g>
       <use xlink:href="#m2539375d1f" x="335.781818" y="384.48" style="stroke: #000000; stroke-width: 0.8"/>
      </g>
     </g>
     <g id="text_6">
      <!-- −5.0 -->
      <g transform="translate(316.355568 403.6375) scale(0.16 -0.16)">
       <use xlink:href="#DejaVuSans-2212"/>
       <use xlink:href="#DejaVuSans-35" x="83.789062"/>
       <use xlink:href="#DejaVuSans-2e" x="147.412109"/>
       <use xlink:href="#DejaVuSans-30" x="179.199219"/>
      </g>
     </g>
    </g>
    <g id="xtick_7">
     <g id="line2d_13">
      <path d="M 386.509091 384.48 
L 386.509091 51.84 
" clip-path="url(#p61f0234240)" style="fill: none; stroke: #b0b0b0; stroke-width: 0.8; stroke-linecap: square"/>
     </g>
     <g id="line2d_14">
      <g>
       <use xlink:href="#m2539375d1f" x="386.509091" y="384.48" style="stroke: #000000; stroke-width: 0.8"/>
      </g>
     </g>
     <g id="text_7">
      <!-- −2.5 -->
      <g transform="translate(367.082841 403.6375) scale(0.16 -0.16)">
       <use xlink:href="#DejaVuSans-2212"/>
       <use xlink:href="#DejaVuSans-32" x="83.789062"/>
       <use xlink:href="#DejaVuSans-2e" x="147.412109"/>
       <use xlink:href="#DejaVuSans-35" x="179.199219"/>
      </g>
     </g>
    </g>
    <g id="xtick_8">
     <g id="line2d_15">
      <path d="M 437.236364 384.48 
L 437.236364 51.84 
" clip-path="url(#p61f0234240)" style="fill: none; stroke: #b0b0b0; stroke-width: 0.8; stroke-linecap: square"/>
     </g>
     <g id="line2d_16">
      <g>
       <use xlink:href="#m2539375d1f" x="437.236364" y="384.48" style="stroke: #000000; stroke-width: 0.8"/>
      </g>
     </g>
     <g id="text_8">
      <!-- 0.0 -->
      <g transform="translate(424.513864 403.6375) scale(0.16 -0.16)">
       <use xlink:href="#DejaVuSans-30"/>
       <use xlink:href="#DejaVuSans-2e" x="63.623047"/>
       <use xlink:href="#DejaVuSans-30" x="95.410156"/>
      </g>
     </g>
    </g>
    <g id="xtick_9">
     <g id="line2d_17">
      <path d="M 487.963636 384.48 
L 487.963636 51.84 
" clip-path="url(#p61f0234240)" style="fill: none; stroke: #b0b0b0; stroke-width: 0.8; stroke-linecap: square"/>
     </g>
     <g id="line2d_18">
      <g>
       <use xlink:href="#m2539375d1f" x="487.963636" y="384.48" style="stroke: #000000; stroke-width: 0.8"/>
      </g>
     </g>
     <g id="text_9">
      <!-- 2.5 -->
      <g transform="translate(475.241136 403.6375) scale(0.16 -0.16)">
       <use xlink:href="#DejaVuSans-32"/>
       <use xlink:href="#DejaVuSans-2e" x="63.623047"/>
       <use xlink:href="#DejaVuSans-35" x="95.410156"/>
      </g>
     </g>
    </g>
    <g id="text_10">
     <!-- Antenna Transmission Power in dBm (decibel-milliwatts) -->
     <g transform="translate(70.79375 423.1225) scale(0.16 -0.16)">
      <defs>
       <path id="DejaVuSans-41" d="M 2188 4044 
L 1331 1722 
L 3047 1722 
L 2188 4044 
z
M 1831 4666 
L 2547 4666 
L 4325 0 
L 3669 0 
L 3244 1197 
L 1141 1197 
L 716 0 
L 50 0 
L 1831 4666 
z
" transform="scale(0.015625)"/>
       <path id="DejaVuSans-6e" d="M 3513 2113 
L 3513 0 
L 2938 0 
L 2938 2094 
Q 2938 2591 2744 2837 
Q 2550 3084 2163 3084 
Q 1697 3084 1428 2787 
Q 1159 2491 1159 1978 
L 1159 0 
L 581 0 
L 581 3500 
L 1159 3500 
L 1159 2956 
Q 1366 3272 1645 3428 
Q 1925 3584 2291 3584 
Q 2894 3584 3203 3211 
Q 3513 2838 3513 2113 
z
" transform="scale(0.015625)"/>
       <path id="DejaVuSans-74" d="M 1172 4494 
L 1172 3500 
L 2356 3500 
L 2356 3053 
L 1172 3053 
L 1172 1153 
Q 1172 725 1289 603 
Q 1406 481 1766 481 
L 2356 481 
L 2356 0 
L 1766 0 
Q 1100 0 847 248 
Q 594 497 594 1153 
L 594 3053 
L 172 3053 
L 172 3500 
L 594 3500 
L 594 4494 
L 1172 4494 
z
" transform="scale(0.015625)"/>
       <path id="DejaVuSans-65" d="M 3597 1894 
L 3597 1613 
L 953 1613 
Q 991 1019 1311 708 
Q 1631 397 2203 397 
Q 2534 397 2845 478 
Q 3156 559 3463 722 
L 3463 178 
Q 3153 47 2828 -22 
Q 2503 -91 2169 -91 
Q 1331 -91 842 396 
Q 353 884 353 1716 
Q 353 2575 817 3079 
Q 1281 3584 2069 3584 
Q 2775 3584 3186 3129 
Q 3597 2675 3597 1894 
z
M 3022 2063 
Q 3016 2534 2758 2815 
Q 2500 3097 2075 3097 
Q 1594 3097 1305 2825 
Q 1016 2553 972 2059 
L 3022 2063 
z
" transform="scale(0.015625)"/>
       <path id="DejaVuSans-61" d="M 2194 1759 
Q 1497 1759 1228 1600 
Q 959 1441 959 1056 
Q 959 750 1161 570 
Q 1363 391 1709 391 
Q 2188 391 2477 730 
Q 2766 1069 2766 1631 
L 2766 1759 
L 2194 1759 
z
M 3341 1997 
L 3341 0 
L 2766 0 
L 2766 531 
Q 2569 213 2275 61 
Q 1981 -91 1556 -91 
Q 1019 -91 701 211 
Q 384 513 384 1019 
Q 384 1609 779 1909 
Q 1175 2209 1959 2209 
L 2766 2209 
L 2766 2266 
Q 2766 2663 2505 2880 
Q 2244 3097 1772 3097 
Q 1472 3097 1187 3025 
Q 903 2953 641 2809 
L 641 3341 
Q 956 3463 1253 3523 
Q 1550 3584 1831 3584 
Q 2591 3584 2966 3190 
Q 3341 2797 3341 1997 
z
" transform="scale(0.015625)"/>
       <path id="DejaVuSans-20" transform="scale(0.015625)"/>
       <path id="DejaVuSans-54" d="M -19 4666 
L 3928 4666 
L 3928 4134 
L 2272 4134 
L 2272 0 
L 1638 0 
L 1638 4134 
L -19 4134 
L -19 4666 
z
" transform="scale(0.015625)"/>
       <path id="DejaVuSans-72" d="M 2631 2963 
Q 2534 3019 2420 3045 
Q 2306 3072 2169 3072 
Q 1681 3072 1420 2755 
Q 1159 2438 1159 1844 
L 1159 0 
L 581 0 
L 581 3500 
L 1159 3500 
L 1159 2956 
Q 1341 3275 1631 3429 
Q 1922 3584 2338 3584 
Q 2397 3584 2469 3576 
Q 2541 3569 2628 3553 
L 2631 2963 
z
" transform="scale(0.015625)"/>
       <path id="DejaVuSans-73" d="M 2834 3397 
L 2834 2853 
Q 2591 2978 2328 3040 
Q 2066 3103 1784 3103 
Q 1356 3103 1142 2972 
Q 928 2841 928 2578 
Q 928 2378 1081 2264 
Q 1234 2150 1697 2047 
L 1894 2003 
Q 2506 1872 2764 1633 
Q 3022 1394 3022 966 
Q 3022 478 2636 193 
Q 2250 -91 1575 -91 
Q 1294 -91 989 -36 
Q 684 19 347 128 
L 347 722 
Q 666 556 975 473 
Q 1284 391 1588 391 
Q 1994 391 2212 530 
Q 2431 669 2431 922 
Q 2431 1156 2273 1281 
Q 2116 1406 1581 1522 
L 1381 1569 
Q 847 1681 609 1914 
Q 372 2147 372 2553 
Q 372 3047 722 3315 
Q 1072 3584 1716 3584 
Q 2034 3584 2315 3537 
Q 2597 3491 2834 3397 
z
" transform="scale(0.015625)"/>
       <path id="DejaVuSans-6d" d="M 3328 2828 
Q 3544 3216 3844 3400 
Q 4144 3584 4550 3584 
Q 5097 3584 5394 3201 
Q 5691 2819 5691 2113 
L 5691 0 
L 5113 0 
L 5113 2094 
Q 5113 2597 4934 2840 
Q 4756 3084 4391 3084 
Q 3944 3084 3684 2787 
Q 3425 2491 3425 1978 
L 3425 0 
L 2847 0 
L 2847 2094 
Q 2847 2600 2669 2842 
Q 2491 3084 2119 3084 
Q 1678 3084 1418 2786 
Q 1159 2488 1159 1978 
L 1159 0 
L 581 0 
L 581 3500 
L 1159 3500 
L 1159 2956 
Q 1356 3278 1631 3431 
Q 1906 3584 2284 3584 
Q 2666 3584 2933 3390 
Q 3200 3197 3328 2828 
z
" transform="scale(0.015625)"/>
       <path id="DejaVuSans-69" d="M 603 3500 
L 1178 3500 
L 1178 0 
L 603 0 
L 603 3500 
z
M 603 4863 
L 1178 4863 
L 1178 4134 
L 603 4134 
L 603 4863 
z
" transform="scale(0.015625)"/>
       <path id="DejaVuSans-6f" d="M 1959 3097 
Q 1497 3097 1228 2736 
Q 959 2375 959 1747 
Q 959 1119 1226 758 
Q 1494 397 1959 397 
Q 2419 397 2687 759 
Q 2956 1122 2956 1747 
Q 2956 2369 2687 2733 
Q 2419 3097 1959 3097 
z
M 1959 3584 
Q 2709 3584 3137 3096 
Q 3566 2609 3566 1747 
Q 3566 888 3137 398 
Q 2709 -91 1959 -91 
Q 1206 -91 779 398 
Q 353 888 353 1747 
Q 353 2609 779 3096 
Q 1206 3584 1959 3584 
z
" transform="scale(0.015625)"/>
       <path id="DejaVuSans-50" d="M 1259 4147 
L 1259 2394 
L 2053 2394 
Q 2494 2394 2734 2622 
Q 2975 2850 2975 3272 
Q 2975 3691 2734 3919 
Q 2494 4147 2053 4147 
L 1259 4147 
z
M 628 4666 
L 2053 4666 
Q 2838 4666 3239 4311 
Q 3641 3956 3641 3272 
Q 3641 2581 3239 2228 
Q 2838 1875 2053 1875 
L 1259 1875 
L 1259 0 
L 628 0 
L 628 4666 
z
" transform="scale(0.015625)"/>
       <path id="DejaVuSans-77" d="M 269 3500 
L 844 3500 
L 1563 769 
L 2278 3500 
L 2956 3500 
L 3675 769 
L 4391 3500 
L 4966 3500 
L 4050 0 
L 3372 0 
L 2619 2869 
L 1863 0 
L 1184 0 
L 269 3500 
z
" transform="scale(0.015625)"/>
       <path id="DejaVuSans-64" d="M 2906 2969 
L 2906 4863 
L 3481 4863 
L 3481 0 
L 2906 0 
L 2906 525 
Q 2725 213 2448 61 
Q 2172 -91 1784 -91 
Q 1150 -91 751 415 
Q 353 922 353 1747 
Q 353 2572 751 3078 
Q 1150 3584 1784 3584 
Q 2172 3584 2448 3432 
Q 2725 3281 2906 2969 
z
M 947 1747 
Q 947 1113 1208 752 
Q 1469 391 1925 391 
Q 2381 391 2643 752 
Q 2906 1113 2906 1747 
Q 2906 2381 2643 2742 
Q 2381 3103 1925 3103 
Q 1469 3103 1208 2742 
Q 947 2381 947 1747 
z
" transform="scale(0.015625)"/>
       <path id="DejaVuSans-42" d="M 1259 2228 
L 1259 519 
L 2272 519 
Q 2781 519 3026 730 
Q 3272 941 3272 1375 
Q 3272 1813 3026 2020 
Q 2781 2228 2272 2228 
L 1259 2228 
z
M 1259 4147 
L 1259 2741 
L 2194 2741 
Q 2656 2741 2882 2914 
Q 3109 3088 3109 3444 
Q 3109 3797 2882 3972 
Q 2656 4147 2194 4147 
L 1259 4147 
z
M 628 4666 
L 2241 4666 
Q 2963 4666 3353 4366 
Q 3744 4066 3744 3513 
Q 3744 3084 3544 2831 
Q 3344 2578 2956 2516 
Q 3422 2416 3680 2098 
Q 3938 1781 3938 1306 
Q 3938 681 3513 340 
Q 3088 0 2303 0 
L 628 0 
L 628 4666 
z
" transform="scale(0.015625)"/>
       <path id="DejaVuSans-28" d="M 1984 4856 
Q 1566 4138 1362 3434 
Q 1159 2731 1159 2009 
Q 1159 1288 1364 580 
Q 1569 -128 1984 -844 
L 1484 -844 
Q 1016 -109 783 600 
Q 550 1309 550 2009 
Q 550 2706 781 3412 
Q 1013 4119 1484 4856 
L 1984 4856 
z
" transform="scale(0.015625)"/>
       <path id="DejaVuSans-63" d="M 3122 3366 
L 3122 2828 
Q 2878 2963 2633 3030 
Q 2388 3097 2138 3097 
Q 1578 3097 1268 2742 
Q 959 2388 959 1747 
Q 959 1106 1268 751 
Q 1578 397 2138 397 
Q 2388 397 2633 464 
Q 2878 531 3122 666 
L 3122 134 
Q 2881 22 2623 -34 
Q 2366 -91 2075 -91 
Q 1284 -91 818 406 
Q 353 903 353 1747 
Q 353 2603 823 3093 
Q 1294 3584 2113 3584 
Q 2378 3584 2631 3529 
Q 2884 3475 3122 3366 
z
" transform="scale(0.015625)"/>
       <path id="DejaVuSans-62" d="M 3116 1747 
Q 3116 2381 2855 2742 
Q 2594 3103 2138 3103 
Q 1681 3103 1420 2742 
Q 1159 2381 1159 1747 
Q 1159 1113 1420 752 
Q 1681 391 2138 391 
Q 2594 391 2855 752 
Q 3116 1113 3116 1747 
z
M 1159 2969 
Q 1341 3281 1617 3432 
Q 1894 3584 2278 3584 
Q 2916 3584 3314 3078 
Q 3713 2572 3713 1747 
Q 3713 922 3314 415 
Q 2916 -91 2278 -91 
Q 1894 -91 1617 61 
Q 1341 213 1159 525 
L 1159 0 
L 581 0 
L 581 4863 
L 1159 4863 
L 1159 2969 
z
" transform="scale(0.015625)"/>
       <path id="DejaVuSans-6c" d="M 603 4863 
L 1178 4863 
L 1178 0 
L 603 0 
L 603 4863 
z
" transform="scale(0.015625)"/>
       <path id="DejaVuSans-2d" d="M 313 2009 
L 1997 2009 
L 1997 1497 
L 313 1497 
L 313 2009 
z
" transform="scale(0.015625)"/>
       <path id="DejaVuSans-29" d="M 513 4856 
L 1013 4856 
Q 1481 4119 1714 3412 
Q 1947 2706 1947 2009 
Q 1947 1309 1714 600 
Q 1481 -109 1013 -844 
L 513 -844 
Q 928 -128 1133 580 
Q 1338 1288 1338 2009 
Q 1338 2731 1133 3434 
Q 928 4138 513 4856 
z
" transform="scale(0.015625)"/>
      </defs>
      <use xlink:href="#DejaVuSans-41"/>
      <use xlink:href="#DejaVuSans-6e" x="68.408203"/>
      <use xlink:href="#DejaVuSans-74" x="131.787109"/>
      <use xlink:href="#DejaVuSans-65" x="170.996094"/>
      <use xlink:href="#DejaVuSans-6e" x="232.519531"/>
      <use xlink:href="#DejaVuSans-6e" x="295.898438"/>
      <use xlink:href="#DejaVuSans-61" x="359.277344"/>
      <use xlink:href="#DejaVuSans-20" x="420.556641"/>
      <use xlink:href="#DejaVuSans-54" x="452.34375"/>
      <use xlink:href="#DejaVuSans-72" x="498.677734"/>
      <use xlink:href="#DejaVuSans-61" x="539.791016"/>
      <use xlink:href="#DejaVuSans-6e" x="601.070312"/>
      <use xlink:href="#DejaVuSans-73" x="664.449219"/>
      <use xlink:href="#DejaVuSans-6d" x="716.548828"/>
      <use xlink:href="#DejaVuSans-69" x="813.960938"/>
      <use xlink:href="#DejaVuSans-73" x="841.744141"/>
      <use xlink:href="#DejaVuSans-73" x="893.84375"/>
      <use xlink:href="#DejaVuSans-69" x="945.943359"/>
      <use xlink:href="#DejaVuSans-6f" x="973.726562"/>
      <use xlink:href="#DejaVuSans-6e" x="1034.908203"/>
      <use xlink:href="#DejaVuSans-20" x="1098.287109"/>
      <use xlink:href="#DejaVuSans-50" x="1130.074219"/>
      <use xlink:href="#DejaVuSans-6f" x="1186.751953"/>
      <use xlink:href="#DejaVuSans-77" x="1247.933594"/>
      <use xlink:href="#DejaVuSans-65" x="1329.720703"/>
      <use xlink:href="#DejaVuSans-72" x="1391.244141"/>
      <use xlink:href="#DejaVuSans-20" x="1432.357422"/>
      <use xlink:href="#DejaVuSans-69" x="1464.144531"/>
      <use xlink:href="#DejaVuSans-6e" x="1491.927734"/>
      <use xlink:href="#DejaVuSans-20" x="1555.306641"/>
      <use xlink:href="#DejaVuSans-64" x="1587.09375"/>
      <use xlink:href="#DejaVuSans-42" x="1650.570312"/>
      <use xlink:href="#DejaVuSans-6d" x="1719.173828"/>
      <use xlink:href="#DejaVuSans-20" x="1816.585938"/>
      <use xlink:href="#DejaVuSans-28" x="1848.373047"/>
      <use xlink:href="#DejaVuSans-64" x="1887.386719"/>
      <use xlink:href="#DejaVuSans-65" x="1950.863281"/>
      <use xlink:href="#DejaVuSans-63" x="2012.386719"/>
      <use xlink:href="#DejaVuSans-69" x="2067.367188"/>
      <use xlink:href="#DejaVuSans-62" x="2095.150391"/>
      <use xlink:href="#DejaVuSans-65" x="2158.626953"/>
      <use xlink:href="#DejaVuSans-6c" x="2220.150391"/>
      <use xlink:href="#DejaVuSans-2d" x="2247.933594"/>
      <use xlink:href="#DejaVuSans-6d" x="2284.017578"/>
      <use xlink:href="#DejaVuSans-69" x="2381.429688"/>
      <use xlink:href="#DejaVuSans-6c" x="2409.212891"/>
      <use xlink:href="#DejaVuSans-6c" x="2436.996094"/>
      <use xlink:href="#DejaVuSans-69" x="2464.779297"/>
      <use xlink:href="#DejaVuSans-77" x="2492.5625"/>
      <use xlink:href="#DejaVuSans-61" x="2574.349609"/>
      <use xlink:href="#DejaVuSans-74" x="2635.628906"/>
      <use xlink:href="#DejaVuSans-74" x="2674.837891"/>
      <use xlink:href="#DejaVuSans-73" x="2714.046875"/>
      <use xlink:href="#DejaVuSans-29" x="2766.146484"/>
     </g>
    </g>
   </g>
   <g id="matplotlib.axis_2">
    <g id="ytick_1">
     <g id="line2d_19">
      <path d="M 72 378.413892 
L 518.4 378.413892 
" clip-path="url(#p61f0234240)" style="fill: none; stroke: #b0b0b0; stroke-width: 0.8; stroke-linecap: square"/>
     </g>
     <g id="line2d_20">
      <defs>
       <path id="m288d0b84b7" d="M 0 0 
L -3.5 0 
" style="stroke: #000000; stroke-width: 0.8"/>
      </defs>
      <g>
       <use xlink:href="#m288d0b84b7" x="72" y="378.413892" style="stroke: #000000; stroke-width: 0.8"/>
      </g>
     </g>
     <g id="text_11">
      <!-- 1000 -->
      <g transform="translate(24.28 384.492642) scale(0.16 -0.16)">
       <use xlink:href="#DejaVuSans-31"/>
       <use xlink:href="#DejaVuSans-30" x="63.623047"/>
       <use xlink:href="#DejaVuSans-30" x="127.246094"/>
       <use xlink:href="#DejaVuSans-30" x="190.869141"/>
      </g>
     </g>
    </g>
    <g id="ytick_2">
     <g id="line2d_21">
      <path d="M 72 328.114491 
L 518.4 328.114491 
" clip-path="url(#p61f0234240)" style="fill: none; stroke: #b0b0b0; stroke-width: 0.8; stroke-linecap: square"/>
     </g>
     <g id="line2d_22">
      <g>
       <use xlink:href="#m288d0b84b7" x="72" y="328.114491" style="stroke: #000000; stroke-width: 0.8"/>
      </g>
     </g>
     <g id="text_12">
      <!-- 1500 -->
      <g transform="translate(24.28 334.193241) scale(0.16 -0.16)">
       <use xlink:href="#DejaVuSans-31"/>
       <use xlink:href="#DejaVuSans-35" x="63.623047"/>
       <use xlink:href="#DejaVuSans-30" x="127.246094"/>
       <use xlink:href="#DejaVuSans-30" x="190.869141"/>
      </g>
     </g>
    </g>
    <g id="ytick_3">
     <g id="line2d_23">
      <path d="M 72 277.81509 
L 518.4 277.81509 
" clip-path="url(#p61f0234240)" style="fill: none; stroke: #b0b0b0; stroke-width: 0.8; stroke-linecap: square"/>
     </g>
     <g id="line2d_24">
      <g>
       <use xlink:href="#m288d0b84b7" x="72" y="277.81509" style="stroke: #000000; stroke-width: 0.8"/>
      </g>
     </g>
     <g id="text_13">
      <!-- 2000 -->
      <g transform="translate(24.28 283.89384) scale(0.16 -0.16)">
       <use xlink:href="#DejaVuSans-32"/>
       <use xlink:href="#DejaVuSans-30" x="63.623047"/>
       <use xlink:href="#DejaVuSans-30" x="127.246094"/>
       <use xlink:href="#DejaVuSans-30" x="190.869141"/>
      </g>
     </g>
    </g>
    <g id="ytick_4">
     <g id="line2d_25">
      <path d="M 72 227.515689 
L 518.4 227.515689 
" clip-path="url(#p61f0234240)" style="fill: none; stroke: #b0b0b0; stroke-width: 0.8; stroke-linecap: square"/>
     </g>
     <g id="line2d_26">
      <g>
       <use xlink:href="#m288d0b84b7" x="72" y="227.515689" style="stroke: #000000; stroke-width: 0.8"/>
      </g>
     </g>
     <g id="text_14">
      <!-- 2500 -->
      <g transform="translate(24.28 233.594439) scale(0.16 -0.16)">
       <use xlink:href="#DejaVuSans-32"/>
       <use xlink:href="#DejaVuSans-35" x="63.623047"/>
       <use xlink:href="#DejaVuSans-30" x="127.246094"/>
       <use xlink:href="#DejaVuSans-30" x="190.869141"/>
      </g>
     </g>
    </g>
    <g id="ytick_5">
     <g id="line2d_27">
      <path d="M 72 177.216287 
L 518.4 177.216287 
" clip-path="url(#p61f0234240)" style="fill: none; stroke: #b0b0b0; stroke-width: 0.8; stroke-linecap: square"/>
     </g>
     <g id="line2d_28">
      <g>
       <use xlink:href="#m288d0b84b7" x="72" y="177.216287" style="stroke: #000000; stroke-width: 0.8"/>
      </g>
     </g>
     <g id="text_15">
      <!-- 3000 -->
      <g transform="translate(24.28 183.295037) scale(0.16 -0.16)">
       <defs>
        <path id="DejaVuSans-33" d="M 2597 2516 
Q 3050 2419 3304 2112 
Q 3559 1806 3559 1356 
Q 3559 666 3084 287 
Q 2609 -91 1734 -91 
Q 1441 -91 1130 -33 
Q 819 25 488 141 
L 488 750 
Q 750 597 1062 519 
Q 1375 441 1716 441 
Q 2309 441 2620 675 
Q 2931 909 2931 1356 
Q 2931 1769 2642 2001 
Q 2353 2234 1838 2234 
L 1294 2234 
L 1294 2753 
L 1863 2753 
Q 2328 2753 2575 2939 
Q 2822 3125 2822 3475 
Q 2822 3834 2567 4026 
Q 2313 4219 1838 4219 
Q 1578 4219 1281 4162 
Q 984 4106 628 3988 
L 628 4550 
Q 988 4650 1302 4700 
Q 1616 4750 1894 4750 
Q 2613 4750 3031 4423 
Q 3450 4097 3450 3541 
Q 3450 3153 3228 2886 
Q 3006 2619 2597 2516 
z
" transform="scale(0.015625)"/>
       </defs>
       <use xlink:href="#DejaVuSans-33"/>
       <use xlink:href="#DejaVuSans-30" x="63.623047"/>
       <use xlink:href="#DejaVuSans-30" x="127.246094"/>
       <use xlink:href="#DejaVuSans-30" x="190.869141"/>
      </g>
     </g>
    </g>
    <g id="ytick_6">
     <g id="line2d_29">
      <path d="M 72 126.916886 
L 518.4 126.916886 
" clip-path="url(#p61f0234240)" style="fill: none; stroke: #b0b0b0; stroke-width: 0.8; stroke-linecap: square"/>
     </g>
     <g id="line2d_30">
      <g>
       <use xlink:href="#m288d0b84b7" x="72" y="126.916886" style="stroke: #000000; stroke-width: 0.8"/>
      </g>
     </g>
     <g id="text_16">
      <!-- 3500 -->
      <g transform="translate(24.28 132.995636) scale(0.16 -0.16)">
       <use xlink:href="#DejaVuSans-33"/>
       <use xlink:href="#DejaVuSans-35" x="63.623047"/>
       <use xlink:href="#DejaVuSans-30" x="127.246094"/>
       <use xlink:href="#DejaVuSans-30" x="190.869141"/>
      </g>
     </g>
    </g>
    <g id="ytick_7">
     <g id="line2d_31">
      <path d="M 72 76.617485 
L 518.4 76.617485 
" clip-path="url(#p61f0234240)" style="fill: none; stroke: #b0b0b0; stroke-width: 0.8; stroke-linecap: square"/>
     </g>
     <g id="line2d_32">
      <g>
       <use xlink:href="#m288d0b84b7" x="72" y="76.617485" style="stroke: #000000; stroke-width: 0.8"/>
      </g>
     </g>
     <g id="text_17">
      <!-- 4000 -->
      <g transform="translate(24.28 82.696235) scale(0.16 -0.16)">
       <defs>
        <path id="DejaVuSans-34" d="M 2419 4116 
L 825 1625 
L 2419 1625 
L 2419 4116 
z
M 2253 4666 
L 3047 4666 
L 3047 1625 
L 3713 1625 
L 3713 1100 
L 3047 1100 
L 3047 0 
L 2419 0 
L 2419 1100 
L 313 1100 
L 313 1709 
L 2253 4666 
z
" transform="scale(0.015625)"/>
       </defs>
       <use xlink:href="#DejaVuSans-34"/>
       <use xlink:href="#DejaVuSans-30" x="63.623047"/>
       <use xlink:href="#DejaVuSans-30" x="127.246094"/>
       <use xlink:href="#DejaVuSans-30" x="190.869141"/>
      </g>
     </g>
    </g>
    <g id="text_18">
     <!-- Reached Nodes -->
     <g transform="translate(16.9525 280.245) rotate(-90) scale(0.16 -0.16)">
      <defs>
       <path id="DejaVuSans-52" d="M 2841 2188 
Q 3044 2119 3236 1894 
Q 3428 1669 3622 1275 
L 4263 0 
L 3584 0 
L 2988 1197 
Q 2756 1666 2539 1819 
Q 2322 1972 1947 1972 
L 1259 1972 
L 1259 0 
L 628 0 
L 628 4666 
L 2053 4666 
Q 2853 4666 3247 4331 
Q 3641 3997 3641 3322 
Q 3641 2881 3436 2590 
Q 3231 2300 2841 2188 
z
M 1259 4147 
L 1259 2491 
L 2053 2491 
Q 2509 2491 2742 2702 
Q 2975 2913 2975 3322 
Q 2975 3731 2742 3939 
Q 2509 4147 2053 4147 
L 1259 4147 
z
" transform="scale(0.015625)"/>
       <path id="DejaVuSans-68" d="M 3513 2113 
L 3513 0 
L 2938 0 
L 2938 2094 
Q 2938 2591 2744 2837 
Q 2550 3084 2163 3084 
Q 1697 3084 1428 2787 
Q 1159 2491 1159 1978 
L 1159 0 
L 581 0 
L 581 4863 
L 1159 4863 
L 1159 2956 
Q 1366 3272 1645 3428 
Q 1925 3584 2291 3584 
Q 2894 3584 3203 3211 
Q 3513 2838 3513 2113 
z
" transform="scale(0.015625)"/>
       <path id="DejaVuSans-4e" d="M 628 4666 
L 1478 4666 
L 3547 763 
L 3547 4666 
L 4159 4666 
L 4159 0 
L 3309 0 
L 1241 3903 
L 1241 0 
L 628 0 
L 628 4666 
z
" transform="scale(0.015625)"/>
      </defs>
      <use xlink:href="#DejaVuSans-52"/>
      <use xlink:href="#DejaVuSans-65" x="64.982422"/>
      <use xlink:href="#DejaVuSans-61" x="126.505859"/>
      <use xlink:href="#DejaVuSans-63" x="187.785156"/>
      <use xlink:href="#DejaVuSans-68" x="242.765625"/>
      <use xlink:href="#DejaVuSans-65" x="306.144531"/>
      <use xlink:href="#DejaVuSans-64" x="367.667969"/>
      <use xlink:href="#DejaVuSans-20" x="431.144531"/>
      <use xlink:href="#DejaVuSans-4e" x="462.931641"/>
      <use xlink:href="#DejaVuSans-6f" x="537.736328"/>
      <use xlink:href="#DejaVuSans-64" x="598.917969"/>
      <use xlink:href="#DejaVuSans-65" x="662.394531"/>
      <use xlink:href="#DejaVuSans-73" x="723.917969"/>
     </g>
    </g>
   </g>
   <g id="line2d_33">
    <path d="M 92.290909 335.608121 
L 96.390083 333.030551 
L 100.489256 330.45298 
L 104.58843 327.87541 
L 108.687603 325.297839 
L 112.786777 322.720269 
L 116.88595 320.142698 
L 120.985124 317.565128 
L 125.084298 314.987557 
L 129.183471 312.409987 
L 133.282645 309.832417 
L 137.381818 307.254846 
L 141.480992 304.677276 
L 145.580165 302.099705 
L 149.679339 299.522135 
L 153.778512 296.944564 
L 157.877686 294.366994 
L 161.97686 291.789423 
L 166.076033 289.211853 
L 170.175207 286.634282 
L 174.27438 284.056712 
L 178.373554 281.479141 
L 182.472727 278.901571 
L 186.571901 276.324 
L 190.671074 273.74643 
L 194.770248 271.168859 
L 198.869421 268.591289 
L 202.968595 266.013718 
L 207.067769 263.436148 
L 211.166942 260.858577 
L 215.266116 258.281007 
L 219.365289 255.703437 
L 223.464463 253.125866 
L 227.563636 250.548296 
L 231.66281 247.970725 
L 235.761983 245.393155 
L 239.861157 242.815584 
L 243.960331 240.238014 
L 248.059504 237.660443 
L 252.158678 235.082873 
L 256.257851 232.505302 
L 260.357025 229.927732 
L 264.456198 227.350161 
L 268.555372 224.772591 
L 272.654545 222.19502 
L 276.753719 219.61745 
L 280.852893 217.039879 
L 284.952066 214.462309 
L 289.05124 211.884738 
L 293.150413 209.307168 
L 297.249587 206.729597 
L 301.34876 204.152027 
L 305.447934 201.574457 
L 309.547107 198.996886 
L 313.646281 196.419316 
L 317.745455 193.841745 
L 321.844628 191.264175 
L 325.943802 188.686604 
L 330.042975 186.109034 
L 334.142149 183.531463 
L 338.241322 180.953893 
L 342.340496 178.376322 
L 346.439669 175.798752 
L 350.538843 173.221181 
L 354.638017 170.643611 
L 358.73719 168.06604 
L 362.836364 165.48847 
L 366.935537 162.910899 
L 371.034711 160.333329 
L 375.133884 157.755758 
L 379.233058 155.178188 
L 383.332231 152.600617 
L 387.431405 150.023047 
L 391.530579 147.445477 
L 395.629752 144.867906 
L 399.728926 142.290336 
L 403.828099 139.712765 
L 407.927273 137.135195 
L 412.026446 134.557624 
L 416.12562 131.980054 
L 420.224793 129.402483 
L 424.323967 126.824913 
L 428.42314 124.247342 
L 432.522314 121.669772 
L 436.621488 119.092201 
L 440.720661 116.514631 
L 444.819835 113.93706 
L 448.919008 111.35949 
L 453.018182 108.781919 
L 457.117355 106.204349 
L 461.216529 103.626778 
L 465.315702 101.049208 
L 469.414876 98.471637 
L 473.51405 95.894067 
L 477.613223 93.316496 
L 481.712397 90.738926 
L 485.81157 88.161356 
L 489.910744 85.583785 
L 494.009917 83.006215 
L 498.109091 80.428644 
" clip-path="url(#p61f0234240)" style="fill: none; stroke: #ff0000; stroke-width: 2.25; stroke-linecap: square"/>
   </g>
   <g id="patch_3">
    <path d="M 72 384.48 
L 72 51.84 
" style="fill: none; stroke: #000000; stroke-width: 0.8; stroke-linejoin: miter; stroke-linecap: square"/>
   </g>
   <g id="patch_4">
    <path d="M 518.4 384.48 
L 518.4 51.84 
" style="fill: none; stroke: #000000; stroke-width: 0.8; stroke-linejoin: miter; stroke-linecap: square"/>
   </g>
   <g id="patch_5">
    <path d="M 72 384.48 
L 518.4 384.48 
" style="fill: none; stroke: #000000; stroke-width: 0.8; stroke-linejoin: miter; stroke-linecap: square"/>
   </g>
   <g id="patch_6">
    <path d="M 72 51.84 
L 518.4 51.84 
" style="fill: none; stroke: #000000; stroke-width: 0.8; stroke-linejoin: miter; stroke-linecap: square"/>
   </g>
  </g>
 </g>
 <defs>
  <clipPath id="p61f0234240">
   <rect x="72" y="51.84" width="446.4" height="332.64"/>
  </clipPath>
 </defs>
</svg>
